<?xml version="1.0" encoding="UTF-8" standalone="no"?>
<!DOCTYPE svg PUBLIC "-//W3C//DTD SVG 1.1//EN" "http://www.w3.org/Graphics/SVG/1.1/DTD/svg11.dtd">
<svg width="100%" height="100%" viewBox="0 0 9934 14044" version="1.1" xmlns="http://www.w3.org/2000/svg" xmlns:xlink="http://www.w3.org/1999/xlink" xml:space="preserve" xmlns:serif="http://www.serif.com/" style="fill-rule:evenodd;clip-rule:evenodd;stroke-linejoin:round;stroke-miterlimit:2;">
    <g id="g1334" transform="matrix(39.5914,-1.75839,1.75839,39.5914,7931.79,-7345.6)">
        <path id="path1202" d="M-88.687,435.573C-88.687,435.573 -121.562,409.68 -173.726,393.719L-168.185,387.272L-188.251,364.811L-174.603,365.112L-187.982,346.731L-181.412,344.983L-186.459,334.783L-180.87,336.128C-180.87,336.128 -186.125,325.567 -181.697,321.567L-177.161,330.257L-168.662,326.433L-171.706,316.16L-165.889,316.651L-169.436,306.548L-164.566,306.022L-168.085,296.385L-164.507,296.123L-162.292,285.581L-151.438,288.337L-153.48,273.756L-148.158,276.097L-150.884,261.791L-144.507,263.042L-143.71,239.002L-135.872,249.034L-133.875,244.993L-128.716,248.511L-131.121,236.426L-126.928,237.854C-126.928,237.854 -129.476,225.731 -124.393,220.992C-124.393,220.992 -120.529,220.807 -115.93,223.564L-113.369,209.454L-106.065,212.937L-104.727,205.668L-106.371,199.279L-100.917,202.265L-101.913,193.456L-97.778,196.242L-94.872,187.106L-90.749,199.041L-85.066,201.174L-86.164,206.981C-86.164,206.981 -74.745,205.922 -78.098,216.159L-73.679,219.021L-75.964,225.273L-67.003,223.708L-65.565,235.992L-61.08,239.177L-61.235,242.033L-57.664,240.092L-53.272,242.489L-46.707,236.774L-43.366,252.77L-39.992,256.115L-42.02,261.978L-36.429,261.036L-35.878,268.658L-16.956,263.508L-20.533,278.566L-16.108,276.854L-21.075,287.421L-15.494,287.086L-20.169,299.409L-12.405,298.896L-15.585,307.349L-12.807,310.077L-14.437,315.589C-14.437,315.589 -7.133,319.071 -2.883,312.888C-2.883,312.888 -0.212,317.723 -2.571,321.972L0.494,322.488L-2.055,327.449L2.832,327.996L-1.49,338.431L5.977,340.737L-2.967,351.916L5.343,355.058L-2.549,367.435L0.693,370.134L-9.186,377.402L-1.597,380.961L-11.762,388.152L-9.896,392.008L-15.592,392.77L-20.093,394.767L-25.794,391.562L-26.285,397.379L-85.21,433.444L-92.803,528.241C-102.584,532.408 -95.006,482.011 -88.687,435.573Z" style="fill:rgb(81,129,30);fill-rule:nonzero;"/>
    </g>
</svg>
