<?xml version="1.0" encoding="UTF-8" standalone="no"?>
<!DOCTYPE svg PUBLIC "-//W3C//DTD SVG 1.1//EN" "http://www.w3.org/Graphics/SVG/1.1/DTD/svg11.dtd">
<svg width="100%" height="100%" viewBox="0 0 9934 14044" version="1.1" xmlns="http://www.w3.org/2000/svg" xmlns:xlink="http://www.w3.org/1999/xlink" xml:space="preserve" xmlns:serif="http://www.serif.com/" style="fill-rule:evenodd;clip-rule:evenodd;stroke-linejoin:round;stroke-miterlimit:2;">
    <g id="g1837" transform="matrix(-3.15401,3.17725,-3.17725,-3.15401,16543.6,9463.17)">
        <g id="g1878">
            <path id="path1720" d="M1846.09,1877.79C1846.09,1877.79 1971.14,1941.04 1997.63,2008.94C1997.63,2008.94 2168.16,2146.41 2123.47,2197.95C2123.47,2197.95 2028.6,2323.77 2089.03,2393.11C2089.03,2393.11 2167.08,2443.94 2094.29,2517.25C2094.29,2517.25 2106.72,2595.28 2139.14,2627.64C2139.14,2627.64 2178.86,2681.66 2087.2,2722.28C2087.2,2722.28 2130.3,2947.19 2042.55,2931.24C2042.55,2931.24 1951.29,2988.43 1924.16,3174.37C1924.16,3174.37 1703.31,3136.03 1662.01,3265.82C1662.01,3265.82 1532.66,3211.71 1473.74,3329.12C1473.74,3329.12 1380.42,3269.62 1321.66,3331.29C1321.66,3331.29 1236.7,3275.36 1151.02,3345.21C1151.02,3345.21 1014.04,3255.89 959.545,3306.92C959.545,3306.92 803.141,3224.09 765.389,3251.36L735.693,3206.89L564.659,3204.25L512.29,3063.17C512.29,3063.17 486.866,2946.29 414.052,2956.34C414.052,2956.34 436.912,2842.81 369.282,2818.08C369.282,2818.08 403.076,2751.74 288.928,2703.29C288.928,2703.29 304.631,2574.12 256.79,2557.95C256.79,2557.95 367.696,2472.42 271.443,2354.24C271.443,2354.24 379.411,2271.79 295.451,2194.74C295.451,2194.74 356.597,2138.28 316.806,2081.25C316.806,2081.25 403.217,2010.62 344.747,1897.55C344.747,1897.55 578.147,1800.77 537.632,1682.75C537.632,1682.75 804.911,1647.66 752.062,1517.89C752.062,1517.89 847.755,1488.46 906.055,1532.24C906.055,1532.24 1014.92,1580.07 1051.46,1533.99C1051.46,1533.99 1186.05,1648.98 1216.87,1553.34C1216.87,1553.34 1458.35,1634.86 1557.4,1557.15C1557.4,1557.15 1755.62,1788.94 1817.57,1849.07C1820.54,1851.95 2405.15,1310.42 2411.28,1316.74C2411.86,1317.33 2419.91,1334.29 2410.61,1344.23C2324.27,1436.52 1844.83,1876.93 1846.09,1877.79Z" style="fill:rgb(51,82,12);fill-rule:nonzero;"/>
        </g>
    </g>
</svg>
