<?xml version="1.0" encoding="UTF-8" standalone="no"?>
<!DOCTYPE svg PUBLIC "-//W3C//DTD SVG 1.1//EN" "http://www.w3.org/Graphics/SVG/1.1/DTD/svg11.dtd">
<svg width="100%" height="100%" viewBox="0 0 1008 1006" version="1.1" xmlns="http://www.w3.org/2000/svg" xmlns:xlink="http://www.w3.org/1999/xlink" xml:space="preserve" xmlns:serif="http://www.serif.com/" style="fill-rule:evenodd;clip-rule:evenodd;stroke-linejoin:round;stroke-miterlimit:2;">
    <path d="M4.68,1005.7C0.372,1004.96 0.162,1001.87 0.483,998.476C1.142,991.516 2.351,982.907 7.414,977.391C57.661,922.642 60.319,925.34 110.067,869.995C127.019,851.135 143.597,831.943 160.289,812.853C164.652,807.863 168.568,803.511 171.267,797.322C176.17,786.079 154.758,777.048 150.132,773.181C142.411,766.727 135.974,758.82 128.154,752.488C117.936,744.215 108.196,742.34 100.856,731.357C94.312,721.565 96.339,720.831 93.309,705.857C92.054,699.654 90.197,693.551 89.452,687.266C88.869,682.342 89.316,677.349 89.344,672.39C89.364,668.905 89.552,665.423 89.597,661.939C89.612,660.723 89.252,657.193 88.9,658.357L88.143,660.857L87.578,657.857C86.34,651.282 83.617,641.127 83.792,633.583C83.854,630.885 84.821,628.246 84.773,625.548C84.499,610.241 80.237,592.675 88.895,578.548C94.107,570.043 102.064,567.428 109.145,560.052C110.5,558.641 107.028,556.65 106.679,554.725C105.828,550.027 105.599,545.235 105.238,540.475C103.012,511.12 101.353,511.498 92.349,483.583C90.569,478.061 88.994,469.927 85.397,464.82C80.92,458.464 78.416,462.948 72.231,459.14C71.762,458.851 72.287,456.169 70.713,456.389C68.535,456.693 66.216,457.033 64.383,458.247C63.082,459.11 62.802,460.944 61.908,462.224C61.55,462.737 60.772,464.221 60.64,463.609C59.208,456.953 67.102,454.874 71.783,454.687C81.269,454.307 96.018,460.338 97.057,446.465C97.243,443.98 97.318,441.475 97.128,438.99C96.033,424.67 89.063,415.355 83.838,402.012C81.526,396.109 83.911,395.551 80.927,390.058C80.109,388.552 78.608,387.524 77.601,386.138C77.236,385.635 76.268,384.2 76.843,384.436C78.697,385.197 80.264,386.556 81.789,387.857C83.175,389.039 84.616,392.558 85.985,391.357C87.776,389.785 87.042,384.967 86.789,383.288C84.987,371.329 82.566,360.492 72.526,352.54C65.416,346.908 64.013,350.46 55.934,346.31C54.293,345.466 62.809,344.856 61.07,344.238C55.559,342.278 53.222,343.516 47.914,345.293C46.594,345.735 43.558,347.933 41.789,346.298C40.951,345.525 43.844,345.311 44.852,344.78C50.998,341.545 50.452,340.404 57.371,339.917C78.67,338.416 91.776,352.8 106.918,365.105C109.805,367.451 102.74,359.033 103.628,359.41C112.998,363.389 116.1,375.504 122.242,383.623C136.682,402.713 154.987,416.249 173.422,431.357C184.059,440.075 199.902,458.084 216.484,456.391C237.082,454.289 239.488,429.353 241.809,413.357C242.679,407.363 243.616,401.376 244.291,395.357C250.245,342.23 249.713,342.333 253.361,288.857C253.779,282.726 255.233,266.92 254.649,260.733C254.444,258.568 252.618,256.752 252.472,254.582C251.304,237.258 254.832,219.952 247.734,203.452L238.289,188.699C237.271,177.146 228.901,180.862 253.559,181.122C262.122,181.24 268.525,181.921 276.923,179.115C281.918,177.445 284.951,166.715 286.152,163.182C293.82,140.616 297.508,131.234 300.219,107.272C301.624,94.849 301.386,82.289 302.443,69.832C302.994,63.339 307.606,72.864 309.877,71.762C312.616,70.433 314.646,66.523 315.272,63.735C318.003,51.568 318.37,34.324 326.085,23.342C329.716,18.172 334.272,13.719 338.408,8.943C342.41,4.322 343.271,2.667 348.844,0.013C349.62,-0.357 348.985,1.847 348.52,2.569C347.462,4.209 346.126,5.672 345.19,7.384C339.744,17.346 338.83,18.092 340.068,29.555C341.977,47.238 344.437,51.701 348.754,68.856C351.735,80.703 353.334,94.893 360.034,105.641C364.584,112.942 374.01,122.232 379.079,109.504C381.102,104.423 379.962,98.777 377.913,93.866C376.983,91.637 374.842,90.134 373.428,88.175C372.885,87.423 371.159,85.985 372.057,85.755C373.333,85.427 374.561,86.746 375.533,87.635C381.848,93.409 382.834,101.325 383.758,109.44C385.14,121.579 385.643,133.816 387.264,145.926C388.725,156.852 392.203,166.253 395.869,176.566C405.955,204.935 417.644,233.061 436.463,256.939C444.513,267.152 453.426,277.146 467.202,278.007C478.918,278.74 493.995,272.175 504.086,267.888C511.566,264.709 519.28,261.866 526.166,257.55C537.177,250.646 553.223,234.684 562.202,225.357C602.041,183.972 640.527,142.309 669.092,92.229C670.833,89.177 671.793,85.663 673.893,82.846C674.274,82.335 675.2,83.616 675.751,83.296C678.12,81.918 680.047,79.889 682.099,78.074C693.61,67.894 706.004,61.394 721.549,67.86C728.459,70.734 735.012,74.402 741.788,77.58C743.731,78.491 745.895,78.97 747.702,80.128C748.26,80.485 749.223,81.936 748.562,81.917C741.786,81.727 736.54,78.746 730.556,76.125C726.489,74.344 720.483,70.343 715.987,74.007L713.717,75.857L717.503,76.004C721.851,76.173 726.098,77.463 730.294,78.615C734.544,79.78 738.727,81.229 742.788,82.94C743.26,83.139 744.133,84.28 743.623,84.23C739.191,83.793 734.909,82.34 730.497,81.728C723.699,80.787 710.989,78.292 705.595,85.629C701.47,91.239 704.632,103.82 705.735,109.357C710.221,131.873 713.126,152.004 727.111,170.486C730.392,174.823 735.078,178.604 740.657,179.472C781.181,185.779 816.113,152.472 845.788,130.833C850.713,127.241 856.038,124.184 860.746,120.312C872.526,110.626 870.277,108.48 881.832,98.562C882.587,97.915 900.335,87.026 887.772,98.775L882.788,103.437L882.788,110.776C882.788,115.842 883.403,121.553 886.453,125.872C889.485,130.165 894.444,130.291 899.055,130.421C911.98,130.786 925.62,129.216 937.972,125.405C947.021,122.612 953.873,116.707 963.788,118.214C964.357,118.3 965.755,118.76 965.278,119.083C963.318,120.412 958.283,120.139 956.23,120.825C955.71,120.998 954.663,121.895 955.176,122.089C957.022,122.786 959.314,121.748 961.068,122.651C961.756,123.005 958.672,124.006 959.401,124.264C964.424,126.036 967.748,123.082 972.413,122.246C982.114,120.505 1001.33,118.279 1007.79,129.457C1008.59,130.845 1004.87,131.246 1003.27,131.105C995.965,130.459 993.214,129.621 987.47,133.808C979.421,139.676 970.96,145.043 963.474,151.613C952.227,161.484 944.705,173.3 936.675,185.704C933.961,189.895 923.822,202.685 929.116,207.972C935.932,214.776 944.629,214.806 953.711,217.25C955.309,217.68 956.995,217.94 958.453,218.722C959.93,219.514 962.9,222.527 961.264,222.891C959.434,223.298 955.662,220.268 954.574,220.361C954.335,220.381 960.79,224.476 958.982,225.343C954.986,227.26 947.776,221.055 944.356,223.751C934.241,231.722 926.155,242.226 915.45,249.386C899.325,260.173 895.217,253.308 881.766,267.096C871.474,277.647 862.998,290.012 855.709,302.823C851.46,310.29 849.323,318.782 845.776,326.607C843.538,331.542 835.023,342.663 837.129,349.616C838.766,355.021 844.258,362.428 848.641,366.038C868.541,382.427 892.694,390.893 918.513,386.886C932.032,384.787 945.129,380.452 958.617,378.162C960.858,377.781 978.522,373.298 969.186,382.347L964.584,386.807L967.936,387.625C981.149,390.85 962.209,395.714 957.842,398.357C950.174,402.998 942.567,407.783 935.384,413.144C928.198,418.506 921.524,424.529 914.809,430.471C913.102,431.981 909.599,435.358 909.648,438.322C909.708,441.974 913.272,443.653 914.788,446.446C915.724,448.169 907.942,444.086 906.706,443.992C906.126,443.948 904.951,444.058 905.081,444.624C905.447,446.209 909.142,447.784 907.788,448.686C904.959,450.569 901.029,449.486 897.632,449.584C887.482,449.878 877.393,447.845 867.347,450.463C849.419,455.134 833.127,467.107 819.138,478.494C815.753,481.249 812.793,484.524 810.052,487.92C806.895,491.831 804.392,500.271 798.522,501.918C789.758,504.377 780.588,505.265 771.887,507.936C747.761,515.342 727.767,533.077 716.221,555.361C714.503,558.676 705.9,583.237 704.412,586.677C703.651,588.435 698.588,593.359 700.514,596.139C704.415,601.768 708.881,606.985 713.183,612.315C714.549,614.007 716.678,615.189 717.512,617.199C717.788,617.863 716.41,618.357 715.69,618.357L713.592,618.357L715.62,621.56C722.075,631.754 731.121,638.308 740.685,645.21C749.119,651.296 765.872,662.297 774.87,666.937C792.005,675.776 813.47,679.618 831.788,683.784C841.762,686.052 851.893,687.64 861.788,690.233C866.615,691.497 871.16,693.66 875.862,695.33C877.073,695.761 883.842,696.847 883.512,699.967C883.308,701.896 880.572,699.911 880.488,699.864C872.559,695.455 872.632,695.488 863.788,693.101C862.649,692.793 861.293,692.258 860.26,692.827C859.586,693.198 861.565,693.664 862.288,693.927C863.856,694.496 865.55,694.689 867.098,695.312C867.587,695.508 868.807,696.211 868.297,696.343C858.24,698.932 855.853,695.614 850.813,704.746L848.666,708.636L851.977,712.065C869.682,730.405 894.571,732.697 918.706,731.89C927.497,731.596 938.545,734.755 944.895,728.67C948.049,725.649 945.414,720.991 946.282,717.604C946.413,717.093 947.519,716.451 947.719,716.94C949.453,721.187 952.351,733.039 947.486,736.967C944.357,739.494 940.566,741.076 937.009,742.955C927.693,747.874 918.348,752.747 908.875,757.357C901.109,761.135 900.755,760.018 893.51,764.526C891.673,765.668 890.011,767.072 888.288,768.38C888.019,768.584 887.204,768.998 887.536,769.06C894.859,770.437 899.058,763.301 906.281,765.346C906.6,765.436 905.682,765.636 905.37,765.75C904.028,766.238 902.642,766.606 901.322,767.152C898.476,768.328 895.747,769.778 892.883,770.91C892.177,771.189 888.335,771.55 888.043,773.12C887.826,774.294 893.365,778.172 893.225,778.273C891.318,779.659 886.317,778.436 884.542,777.864C871.75,773.736 872.198,772.778 859.243,769.731C838.016,764.738 814.194,762.518 800.81,782.932C798.845,785.929 797.707,789.396 796.034,792.567C795.405,793.759 793.793,794.666 793.91,796.01C794.092,798.115 799.123,811.309 800.983,813.36C805.221,818.032 799.097,819.601 795.214,817.768C786.831,813.808 779.766,804.937 771.778,800.131C759.006,792.446 745.38,787.566 730.902,783.631C718.859,780.358 701.406,778.824 688.946,778.963C665.363,779.227 634.545,780.644 610.861,784.944C602.678,786.43 594.89,789.627 586.788,791.504C577.935,793.556 568.988,795.194 560.03,796.722C554.359,797.69 546.965,797.263 541.54,799.774C531.149,804.585 531.082,816.589 531.223,826.308C531.498,845.332 538.052,866.679 551.727,880.413C557.078,885.787 563.093,890.468 569.043,895.17C573.697,898.848 578.86,901.85 583.511,905.531C584.791,906.545 586.625,907.569 586.761,909.195C586.852,910.29 584.676,908.471 583.712,907.945C582.395,907.227 581.437,905.653 579.946,905.479C579.276,905.402 579.788,906.838 579.526,907.459C578.998,908.712 576.826,910.455 577.949,911.219C580.076,912.666 591.937,915.525 583.146,919.353C557.444,930.542 528.431,912.355 502.069,914.265C495.98,914.706 488.163,918.446 488.789,925.769C489.033,928.631 489.991,931.41 491.016,934.093C492.04,936.773 493.645,939.194 494.902,941.773C495.312,942.616 496.783,944.895 496.016,944.356C489.087,939.492 486.89,928.813 483.615,921.97C479.137,912.612 470.698,905.017 462.672,898.871C453.036,891.492 450.025,891.615 439.622,885.589C431.252,880.74 423.407,874.977 414.824,870.517C406.935,866.417 394.097,863.739 385.789,860.89C363.133,853.12 356.898,848.807 333.289,843.909C295.967,836.167 295.632,838.883 258.34,830.376C248.066,828.033 233.786,823.017 224.467,818.055C217.899,814.559 212.232,806.545 203.721,807.943C188.049,810.517 173.895,830.586 164.289,840.94C148.734,857.707 119.204,889.924 105.039,907.915C91.429,925.201 78.505,944.602 65.281,962.344C60.75,968.424 56.823,975.262 51.958,981.015C50.722,982.477 48.779,983.237 47.572,984.724C46.762,985.722 46.927,987.321 46.064,988.275C43.602,991.001 40.395,992.963 37.788,995.55C34.219,999.094 32.882,1003.24 27.538,1004.82C23.233,1006.1 9.096,1006.47 4.679,1005.7L4.68,1005.7ZM135.51,624.85C136.557,619.704 136.915,614.408 136.892,609.157C136.868,603.901 136.058,598.674 135.369,593.464C135.023,590.853 134.101,590.387 132.791,588.245C126.161,577.405 126.84,576.967 118.087,567.645L112.252,561.43L105.961,565.408C103.57,566.92 93.559,573.888 91.191,578.897C86.045,589.786 100.05,602.122 106.193,608.838C109.133,612.052 111.937,615.399 115.054,618.442C118.952,622.248 122.933,625.996 127.216,629.365C132.407,633.449 134.572,629.462 135.511,624.85L135.51,624.85Z" style="fill:rgb(127,127,0);fill-rule:nonzero;"/>
</svg>
