<?xml version="1.0" encoding="UTF-8" standalone="no"?>
<!DOCTYPE svg PUBLIC "-//W3C//DTD SVG 1.1//EN" "http://www.w3.org/Graphics/SVG/1.1/DTD/svg11.dtd">
<svg width="100%" height="100%" viewBox="0 0 474 496" version="1.1" xmlns="http://www.w3.org/2000/svg" xmlns:xlink="http://www.w3.org/1999/xlink" xml:space="preserve" xmlns:serif="http://www.serif.com/" style="fill-rule:evenodd;clip-rule:evenodd;stroke-linejoin:round;stroke-miterlimit:2;">
    <path d="M203.17,494.97C214.016,491.847 209.926,465.25 210.674,460.743C216.091,428.1 227.682,397.008 233.262,364.382C234.602,356.549 234.789,348.549 236.121,340.714C236.52,338.365 236.113,334.886 238.282,333.899C243.558,331.498 252.672,338.993 255.078,343.33C260.906,353.834 268.514,361.2 277.971,369.457C283.897,374.632 292.109,377.901 298.398,382.521C304.716,387.161 310.337,392.694 316.578,397.438C316.909,397.689 316.023,396.816 315.787,396.473C314.682,394.867 313.572,393.261 312.558,391.595C311.682,390.158 310.817,388.705 310.12,387.172C308.142,382.828 302.627,373.186 303.961,366.8C304.353,364.928 313.564,361.274 314.732,361.286C317.55,361.314 320.236,362.515 323.018,362.963C326.242,363.483 329.636,362.748 332.796,363.572C338.162,364.972 337.039,366.784 342.279,368.982C349.197,371.884 356.991,371.982 364.229,373.951C367.95,374.964 370.693,378.161 373.87,380.345C375.125,381.208 376.381,382.068 377.616,382.959C377.985,383.225 378.851,384.24 378.67,383.823C377.397,380.876 374.795,376.238 374.287,373.678C372.819,366.278 377.416,361.116 381.191,355.564C381.88,354.551 383.939,351.036 385.102,350.312C388.26,348.346 392.795,347.976 396.049,346.028C400.631,343.284 404.529,339.132 409.615,337.503C414.544,335.925 419.941,336.776 425.093,336.296C432.677,335.591 440.224,334.453 447.826,333.985C451.188,333.778 454.563,334.087 457.925,334.274C459.958,334.387 465.64,335.417 464.033,334.168C463.025,333.385 461.227,333.622 460.575,332.525C460.116,331.753 462.352,332.829 463.249,332.851C465.349,332.902 467.469,333.036 469.548,332.743C470.4,332.623 467.849,332.478 467.003,332.322C464.334,331.832 461.612,331.557 459.004,330.804C454.435,329.487 450.011,327.714 445.528,326.128C440.563,324.372 435.019,322.696 430.569,319.798C426.004,316.826 424.188,312.138 420.211,308.291C414.877,303.132 413.898,303.318 408.242,298.371C403.603,294.314 402.641,290.86 400.015,285.394C399.482,284.285 397.167,280.038 397.843,278.188C400.488,270.95 408.501,266.314 413.83,261.176C421.888,253.408 428.988,244.187 438.037,237.414C442.632,233.974 448.744,231.638 453.705,228.926C464.243,223.165 464.529,223.627 472.389,214.965C473.026,214.264 474.28,213.418 473.893,212.554C473.567,211.827 472.604,213.5 471.905,213.883C468.968,215.49 466.22,217.624 462.993,218.517C458.487,219.764 448.924,219.636 446.151,214.084C443.138,208.052 438.94,198.5 437.679,192.018C436.441,185.658 436.073,173.958 437.284,167.276C437.847,164.166 440.181,161.656 441.625,158.844C445.556,151.193 449.59,144.144 454.721,137.183C460.105,129.881 466.116,127.9 467.87,118.043C468.321,115.505 465.293,122.521 463.759,124.593C463.037,125.568 461.951,126.282 460.839,126.767C452.277,130.498 442.72,133.114 433.91,136.375C418.951,141.912 404.723,138.772 389.128,140.338C381.47,141.107 373.541,144.719 365.92,146.038C359.905,147.08 355.609,146.755 349.157,147.369C346.519,147.62 343.742,149.875 341.333,148.773C334.531,145.661 329.586,135.716 326.549,129.508C322.107,120.428 320.278,113.02 317.26,103.765C316.051,100.059 313.942,96.041 314.027,92.028C314.142,86.63 316.035,81.11 316.544,75.699C317.506,65.459 316.809,65.634 318.102,55.308C318.587,51.428 320.261,47.67 320.168,43.761L320.141,42.639L319.793,43.738C315.104,58.573 297.025,49.168 288.861,42.749C276.094,32.71 274.26,19.044 274.664,4.259L274.693,3.207L280.551,3.407C294.818,3.894 277.473,-0.283 276.137,-0.002C274.018,0.445 267.457,6.252 266.371,7.59C262.595,12.242 261.093,18.808 257.566,23.628C250.427,33.382 239.152,44.534 227.42,48.588C224.617,49.557 221.527,49.307 218.565,49.465C215.77,49.614 209.578,49.946 206.677,49.285C198.055,47.32 192.964,38.407 185.801,33.912C185.047,33.438 186.516,35.546 186.944,36.327C187.386,37.133 187.763,37.977 188.085,38.838C189.008,41.31 190.101,43.742 190.676,46.317C193.454,58.744 194.001,72.194 193.925,84.892L193.907,87.911L195.338,89.87C198.565,94.293 193.038,95.631 191.062,99.418C190.167,101.133 189.808,103.086 189.379,104.971C186.443,117.88 185.092,127.844 175.69,137.807C173.95,139.65 171.999,141.726 169.404,142.39C169.27,142.424 167.604,140.442 167.517,140.421C161.597,138.967 161.378,141.235 155.902,138.878C144.101,133.799 133.429,124.504 121.839,118.815C116.856,116.369 112.504,111.918 107.097,110.243C103.043,108.988 96.315,109.241 92.529,108.367C85.677,106.786 76.913,102.307 71.358,97.881C64.091,92.09 58.296,86.219 51.466,80.035C48.733,77.56 45.868,75.23 42.962,72.96C42.301,72.444 41.614,71.552 40.786,71.694C40.174,71.799 41.664,72.592 41.975,73.13C43.858,76.379 45.729,79.645 47.356,83.03C52.358,93.441 59.239,106.35 60.234,117.883C60.928,125.941 56.205,130.579 55.163,138.164C54.394,143.762 57.162,148.545 53.732,153.887C51.526,157.324 44.733,165.816 40.783,168.037C33.488,172.139 18.08,172.175 10.811,168.669L9.176,167.88L11.084,169.627C16.316,174.419 23.302,176.481 28.794,180.982C34.469,185.633 36.478,190.967 40.714,196.118C44.24,200.405 49.259,203.45 52.248,208.127C54.033,210.919 55.609,221.589 56.3,223.681C57.881,228.462 62.426,233.306 61.898,238.44C61.681,240.549 60.04,242.275 59.448,244.311C58.85,246.369 59.101,248.619 58.463,250.666C53.38,266.984 51.243,267.042 39.769,279.275C36.34,282.931 34.267,288.453 29.918,291.328C21.691,296.765 12.091,299.629 3.995,305.432C-0.451,308.618 -1.687,317.388 0.618,322.128C0.842,322.588 0.962,321.165 1.138,320.685C2.375,317.325 2.552,313.349 4.857,310.61L5.608,309.717L9.027,309.873C19.649,310.359 31.428,309.989 41.8,312.105C43.681,312.488 51.884,317.457 53.034,317.878C57.527,319.521 57.774,317.741 62.315,319.246C65.272,320.225 67.59,322.63 70.481,323.791C71.977,324.391 73.727,324.253 75.173,324.968C79.531,327.12 86.874,337.632 87.865,338.802C89.139,340.306 91.326,341.175 92.003,343.027C93.441,346.961 84.191,348.707 85.967,348.669L88.376,348.617L86.989,349.225C86.487,349.445 85.056,350.061 85.602,350.11C88.225,350.346 90.874,350.047 93.496,349.81C96.838,349.506 100.121,348.459 103.477,348.489C110.27,348.551 109.341,352.014 116.162,352.499C118.48,352.664 124.085,349.205 126.038,348.359C134.508,344.692 141.154,345.079 149.359,349.435C150.843,350.222 153.282,350.596 153.534,352.256C153.95,355.004 146.815,361.787 144.388,362.074C138.922,362.719 138.839,362.573 134.482,359.243C133.618,358.583 135.577,361.284 136.554,361.764C139.915,363.415 139.656,363.543 143.351,364.121L145.38,364.439L144.361,365.04C143.515,365.539 140.832,365.918 141.717,366.343C144.81,367.825 149.526,365.943 152.084,365.374C158.611,363.921 165.297,362.49 171.701,360.604C183.43,357.149 184.597,355.45 193.448,349.934C196.749,347.877 201.55,348.835 205.17,347.542C208.592,346.319 210.442,339.405 212.568,337.693C214.204,336.376 216.493,336.195 218.429,335.384C220.763,334.405 230.211,325.966 230.997,334.176C232.574,350.654 227.362,372.607 224.019,387.852C221.121,401.064 216.345,413.797 213.255,426.951C210.225,439.845 207.489,452.808 204.401,465.689C203.729,468.494 203.335,471.46 201.945,473.987C199.971,477.576 182.928,500.801 203.171,494.972L203.17,494.97ZM9.034,167.74C9.034,167.707 9,167.682 8.977,167.659C8.93,167.609 8.878,167.563 8.824,167.522C8.593,167.346 8.321,167.142 8.056,166.999C7.996,166.967 7.932,166.94 7.869,166.915C7.856,166.909 7.795,166.891 7.774,166.909C7.751,166.928 7.783,166.98 7.789,166.988C7.823,167.034 7.859,167.079 7.899,167.119C8.125,167.346 8.406,167.527 8.691,167.672C8.748,167.701 8.806,167.729 8.867,167.75C8.906,167.764 8.947,167.773 8.988,167.777C9.012,167.78 9.034,167.765 9.034,167.74L9.034,167.74Z" style="fill:rgb(209,165,127);fill-rule:nonzero;"/>
</svg>
