<?xml version="1.0" encoding="UTF-8" standalone="no"?>
<!DOCTYPE svg PUBLIC "-//W3C//DTD SVG 1.1//EN" "http://www.w3.org/Graphics/SVG/1.1/DTD/svg11.dtd">
<svg width="100%" height="100%" viewBox="0 0 9934 14044" version="1.1" xmlns="http://www.w3.org/2000/svg" xmlns:xlink="http://www.w3.org/1999/xlink" xml:space="preserve" xmlns:serif="http://www.serif.com/" style="fill-rule:evenodd;clip-rule:evenodd;stroke-linejoin:round;stroke-miterlimit:2;">
    <g id="g1564" transform="matrix(-9.37545,8.93242,-8.93242,-9.37545,8091.17,12444.1)">
        <path id="path1347" d="M-26.704,410.46C-26.704,410.46 133.777,245.489 134.324,241.444C134.523,239.973 -24.906,400.806 -24.86,398.957C-24.715,393.097 -25.641,385.545 -29.55,377.626C-29.55,377.626 -28.237,348.514 -39.838,338.226C-39.838,338.226 -36.773,326.406 -47.499,316.556L-51.439,275.186C-51.439,275.186 -66.323,274.53 -65.667,258.988C-65.01,243.447 -74.641,228.125 -74.641,228.125C-74.641,228.125 -77.049,250.233 -83.178,255.048C-83.178,255.048 -101.783,265.774 -108.788,276.718C-108.788,276.718 -116.23,283.723 -132.428,273.873C-132.428,273.873 -147.969,272.122 -143.153,259.207C-143.153,259.207 -163.729,231.189 -172.485,227.249C-172.485,227.249 -184.742,194.854 -198.532,190.257C-198.532,190.257 -183.648,214.116 -210.571,232.503L-223.923,236.881C-223.923,236.881 -230.49,230.314 -241.872,229.219C-241.872,229.219 -252.16,211.708 -259.165,209.957C-259.165,209.957 -258.727,222.434 -273.173,221.121C-273.173,221.121 -308.196,221.558 -310.603,189.163C-310.028,189.508 -314.806,202.708 -302.723,217.181C-302.723,217.181 -293.311,234.254 -305.131,241.258C-305.131,241.258 -289.809,264.68 -291.998,270.808C-291.998,270.808 -271.86,313.273 -274.925,316.994C-274.925,316.994 -274.925,333.411 -294.843,326.187C-294.843,326.187 -333.149,329.471 -340.591,320.277C-340.591,320.277 -347.377,312.835 -363.793,316.994C-363.793,316.994 -387.434,312.835 -391.811,315.681C-391.811,315.681 -407.571,313.054 -420.486,292.041C-420.486,292.041 -398.816,329.252 -398.159,336.913C-398.159,336.913 -383.275,376.094 -446.752,385.944C-446.752,385.944 -437.997,406.738 -461.418,409.584C-461.418,409.584 -483.307,405.425 -491.844,397.545C-491.844,397.545 -492.5,407.614 -453.319,417.245L-424.864,442.198C-424.864,442.198 -403.631,472.405 -439.529,473.281L-359.197,483.35C-359.197,483.35 -348.471,490.792 -326.582,485.976L-289.59,498.015C-289.59,498.015 -309.728,501.955 -316.295,513.556C-316.295,513.556 -337.089,504.363 -358.102,533.256L-403.412,561.712L-442.156,566.09C-442.156,566.09 -413.262,563.463 -388.09,591.919C-388.09,591.919 -391.592,615.559 -408.447,622.125C-408.447,622.125 -388.528,629.786 -404.288,645.984L-431.649,650.143L-379.991,651.894C-379.991,651.894 -360.291,662.401 -346.72,658.023C-346.72,658.023 -317.389,671.375 -321.11,709.9C-321.11,709.9 -266.826,659.117 -253.473,659.555C-253.473,659.555 -209.915,639.636 -206.193,631.975C-206.193,631.975 -189.339,635.04 -184.742,630.224C-184.742,630.224 -211.447,715.81 -223.267,717.561C-223.267,717.561 -181.24,708.805 -178.176,755.429C-178.176,755.429 -168.982,769.219 -174.455,774.034C-174.455,774.034 -183.429,792.421 -173.798,798.331C-173.798,798.331 -154.098,762.871 -138.776,776.88C-138.776,776.88 -131.115,783.665 -125.423,772.721C-125.423,772.721 -95.436,724.127 -38.962,775.129L-28.456,793.078C-28.456,793.078 -25.391,790.013 -24.078,770.97C-24.078,770.97 -5.253,741.857 -9.412,722.376C-9.412,722.376 2.846,697.423 -4.378,685.384C-4.378,685.384 0.438,633.945 47.28,652.113C47.28,652.113 121.046,685.165 127.175,698.08C127.175,698.08 143.372,711.651 150.815,709.462C150.815,709.462 127.393,698.517 132.647,678.38L135.492,659.993C135.492,659.993 153.879,651.456 139.651,632.632L148.407,613.807L198.532,602.425C198.532,602.425 165.48,582.069 163.948,572.875L131.99,540.699C131.99,540.699 121.046,546.171 116.887,533.475C116.887,533.475 101.564,517.277 104.191,508.303C104.191,508.303 103.534,502.174 120.17,497.796C120.17,497.796 153.222,486.195 156.068,477.658C156.068,477.658 161.321,443.731 178.395,438.477C178.395,438.477 154.973,426.22 132.866,436.507C132.866,436.507 123.891,425.344 115.792,430.16L77.706,435.851C77.706,435.851 65.448,441.323 60.413,427.533C60.413,427.533 46.404,426.438 27.58,420.966C27.58,420.966 -15.103,407.833 -26.704,410.46Z" style="fill:rgb(41,98,29);fill-rule:nonzero;"/>
    </g>
</svg>
