<?xml version="1.0" encoding="UTF-8" standalone="no"?>
<!DOCTYPE svg PUBLIC "-//W3C//DTD SVG 1.1//EN" "http://www.w3.org/Graphics/SVG/1.1/DTD/svg11.dtd">
<svg width="100%" height="100%" viewBox="0 0 5 7" version="1.1" xmlns="http://www.w3.org/2000/svg" xmlns:xlink="http://www.w3.org/1999/xlink" xml:space="preserve" xmlns:serif="http://www.serif.com/" style="fill-rule:evenodd;clip-rule:evenodd;stroke-linejoin:round;stroke-miterlimit:2;">
    <g>
        <path d="M2.518,3.783C2.328,4.046 2.009,4.187 1.687,4.15C1.364,4.114 1.884,4.355 2.571,4.298C3.054,4.253 3.466,3.922 3.613,3.459C3.747,3.615 3.877,3.773 4.003,3.935C4.071,4.021 4.135,4.109 4.197,4.198L4.242,4.265L4.285,4.333C4.297,4.356 4.312,4.378 4.322,4.4L4.331,4.417L4.338,4.433L4.343,4.447L4.345,4.453L4.344,4.446C4.349,4.49 4.386,4.523 4.43,4.523C4.477,4.523 4.516,4.484 4.516,4.437C4.516,4.434 4.516,4.431 4.515,4.428L4.513,4.417L4.512,4.411L4.509,4.402L4.504,4.388L4.494,4.363L4.483,4.341L4.472,4.321C4.458,4.294 4.442,4.27 4.426,4.245L4.378,4.174L4.329,4.104C4.261,4.014 4.192,3.926 4.12,3.84C3.983,3.676 3.843,3.515 3.698,3.359C3.906,3.32 4.56,3.147 4.583,2.511C4.584,1.845 4.182,1.241 3.568,0.984C2.953,0.727 3.736,1.724 3.3,1.657C2.879,1.593 3.365,0.97 2.965,0.634C2.696,0.485 2.382,0.439 2.082,0.505C1.782,0.572 2.41,1.28 2.069,1.424C1.729,1.567 1.857,0.684 1.589,0.672C1.452,0.658 1.314,0.682 1.19,0.741C1.065,0.8 1.659,1.237 1.377,1.271C1.053,1.31 1.188,0.931 0.932,0.918C0.736,0.895 0.541,0.974 0.416,1.126C0.466,1.3 0.489,1.481 0.486,1.662C0.473,2.009 0.525,2.27 0.679,2.304C0.833,2.338 1.878,2.118 1.656,2.372C1.378,2.599 1.005,2.672 0.662,2.567C0.32,2.463 0.66,3.056 0.874,3.203C1.089,3.35 1.411,3.183 1.714,3.059C2.016,2.936 2.175,3.142 1.89,3.227C1.606,3.311 1.355,3.675 0.987,3.513C1.076,3.682 1.219,3.815 1.393,3.892C1.684,4.018 1.926,3.819 2.209,3.696C2.493,3.573 2.627,3.588 2.518,3.783ZM2.863,3.936C2.805,3.843 2.985,3.643 3.044,3.71C3.123,3.8 2.905,4.005 2.863,3.936L2.863,3.936ZM4.247,2.682C4.288,2.777 3.78,3.078 3.831,2.866C3.883,2.654 4.206,2.588 4.247,2.682ZM3.969,1.638C4.004,1.542 4.096,1.705 4.001,2.116C3.899,2.558 3.672,2.641 3.613,2.605C3.555,2.568 3.515,2.493 3.663,2.316C3.796,2.106 3.9,1.878 3.969,1.638ZM0.822,1.559C0.954,1.638 1.098,1.696 1.247,1.732C1.39,1.747 1.402,1.798 1.389,1.84C1.376,1.882 1.233,1.943 1.002,1.788C0.789,1.645 0.765,1.531 0.822,1.559ZM2.093,3.49C1.961,3.532 1.826,3.567 1.69,3.596C1.825,3.563 1.958,3.523 2.088,3.476C2.219,3.43 2.347,3.377 2.472,3.319C2.596,3.259 2.716,3.191 2.832,3.116C2.942,3.042 3.044,2.957 3.138,2.863L3.087,2.812C2.933,2.661 2.773,2.515 2.607,2.376C2.551,2.411 2.496,2.448 2.438,2.482L2.35,2.532L2.305,2.557L2.169,2.626C2.138,2.641 2.107,2.655 2.076,2.669L2.03,2.69C2.014,2.697 1.998,2.703 1.983,2.709L1.888,2.747C1.761,2.795 1.631,2.835 1.499,2.866C1.367,2.898 1.233,2.918 1.098,2.924C1.232,2.913 1.366,2.889 1.496,2.852C1.626,2.816 1.753,2.772 1.878,2.721L1.97,2.68C1.985,2.673 2.001,2.666 2.016,2.659L2.061,2.636C2.091,2.621 2.121,2.607 2.151,2.591L2.283,2.518L2.326,2.492L2.412,2.439C2.463,2.406 2.512,2.372 2.561,2.338C2.478,2.269 2.392,2.202 2.305,2.138C2.227,2.08 2.149,2.024 2.069,1.97L2.067,1.97C1.995,2.002 1.92,2.027 1.843,2.044C1.767,2.06 1.69,2.072 1.613,2.079C1.536,2.086 1.459,2.09 1.381,2.09C1.304,2.09 1.227,2.087 1.151,2.081C1.228,2.083 1.304,2.08 1.381,2.076C1.458,2.071 1.534,2.063 1.609,2.051C1.685,2.039 1.759,2.023 1.833,2.002C1.895,1.984 1.955,1.961 2.014,1.933C1.969,1.903 1.924,1.873 1.879,1.845C1.734,1.752 1.585,1.664 1.433,1.583C1.281,1.501 1.125,1.425 0.968,1.354C0.81,1.283 0.648,1.22 0.484,1.166C0.652,1.209 0.818,1.263 0.979,1.327C1.141,1.389 1.3,1.46 1.456,1.537C1.545,1.581 1.633,1.628 1.719,1.676C1.731,1.628 1.737,1.579 1.737,1.529C1.737,1.472 1.732,1.414 1.722,1.358C1.713,1.3 1.701,1.244 1.685,1.188C1.67,1.132 1.653,1.076 1.632,1.021C1.657,1.074 1.679,1.128 1.699,1.183C1.719,1.239 1.736,1.295 1.751,1.352C1.765,1.409 1.775,1.468 1.78,1.527C1.785,1.587 1.782,1.647 1.771,1.705C1.819,1.732 1.867,1.76 1.914,1.789C2.063,1.879 2.208,1.976 2.349,2.078C2.386,2.105 2.423,2.132 2.46,2.16C2.5,2.064 2.53,1.964 2.55,1.861L2.566,1.776L2.578,1.69C2.583,1.661 2.585,1.632 2.588,1.603C2.591,1.574 2.594,1.545 2.596,1.516C2.605,1.4 2.607,1.283 2.605,1.166C2.604,1.05 2.598,0.933 2.588,0.816C2.603,0.932 2.613,1.049 2.62,1.166C2.626,1.283 2.629,1.4 2.624,1.518C2.624,1.547 2.622,1.576 2.62,1.606C2.619,1.635 2.617,1.664 2.614,1.694L2.605,1.781L2.593,1.869C2.575,1.981 2.546,2.09 2.506,2.196C2.683,2.332 2.852,2.478 3.012,2.634C3.047,2.603 3.082,2.573 3.117,2.542L3.18,2.481C3.201,2.46 3.222,2.44 3.241,2.418L3.301,2.354C3.321,2.332 3.338,2.309 3.357,2.287C3.396,2.242 3.43,2.195 3.465,2.147C3.532,2.051 3.592,1.95 3.643,1.844C3.655,1.817 3.668,1.791 3.678,1.763L3.695,1.723L3.71,1.681C3.73,1.626 3.745,1.568 3.755,1.51C3.747,1.569 3.734,1.627 3.717,1.683L3.703,1.726L3.688,1.767C3.679,1.795 3.667,1.823 3.656,1.85C3.609,1.959 3.553,2.064 3.489,2.163C3.455,2.213 3.423,2.262 3.386,2.309C3.367,2.332 3.35,2.357 3.331,2.379L3.273,2.447C3.254,2.47 3.234,2.491 3.213,2.513L3.152,2.578C3.119,2.61 3.085,2.641 3.052,2.673C3.081,2.702 3.11,2.732 3.139,2.762C3.168,2.793 3.199,2.825 3.227,2.858C3.258,2.891 3.284,2.925 3.312,2.958C3.331,2.981 3.349,3.003 3.367,3.026C3.393,3.016 3.418,3.005 3.442,2.992C3.479,2.972 3.514,2.95 3.547,2.925C3.581,2.901 3.614,2.874 3.644,2.845C3.676,2.817 3.705,2.786 3.732,2.754C3.709,2.789 3.683,2.823 3.655,2.855C3.627,2.888 3.597,2.919 3.566,2.948C3.534,2.977 3.5,3.004 3.464,3.029C3.444,3.043 3.422,3.056 3.4,3.067L3.475,3.162C3.582,3.298 3.688,3.436 3.789,3.577L3.788,3.582L3.783,3.582C3.667,3.453 3.552,3.323 3.437,3.193L3.356,3.102C3.338,3.148 3.315,3.193 3.287,3.235C3.255,3.283 3.218,3.329 3.178,3.373C3.098,3.457 3.01,3.533 2.915,3.6C2.959,3.563 3.002,3.524 3.042,3.483C3.082,3.442 3.121,3.399 3.156,3.354C3.191,3.309 3.223,3.262 3.251,3.212C3.275,3.167 3.295,3.118 3.309,3.068C3.308,3.063 3.31,3.057 3.313,3.052L3.265,2.999C3.236,2.966 3.208,2.933 3.179,2.904L3.178,2.904C3.079,2.997 2.971,3.08 2.855,3.152C2.736,3.224 2.612,3.289 2.484,3.345C2.356,3.399 2.225,3.448 2.093,3.49ZM2.282,2.972C2.275,2.817 2.668,2.624 2.697,2.743C2.735,2.904 2.288,3.086 2.282,2.971L2.282,2.972ZM1.884,2.328C1.918,2.174 2.208,2.281 2.173,2.377C2.125,2.508 1.859,2.441 1.884,2.328L1.884,2.328ZM2.782,2.105C2.678,2.012 2.837,1.79 2.934,1.855C3.064,1.944 2.858,2.174 2.782,2.105L2.782,2.105Z" style="fill-rule:nonzero;"/>
    </g>
</svg>
