<?xml version="1.0" encoding="UTF-8" standalone="no"?>
<!DOCTYPE svg PUBLIC "-//W3C//DTD SVG 1.1//EN" "http://www.w3.org/Graphics/SVG/1.1/DTD/svg11.dtd">
<svg width="100%" height="100%" viewBox="0 0 9934 14044" version="1.1" xmlns="http://www.w3.org/2000/svg" xmlns:xlink="http://www.w3.org/1999/xlink" xml:space="preserve" xmlns:serif="http://www.serif.com/" style="fill-rule:evenodd;clip-rule:evenodd;stroke-linejoin:round;stroke-miterlimit:2;">
    <g id="path857" transform="matrix(68.1266,0,0,68.1266,-23816.8,-18354.8)">
        <path d="M478.578,404.839C470.87,427.448 451.222,441.914 423.111,440.775C419.358,440.623 423.317,415.963 418.673,415.742C415.868,415.608 408.415,438.181 404.185,437.79C390.723,436.542 364.968,436.954 359.193,404.661C380.239,418.404 403.274,416.445 405.331,410.159C405.378,410.016 405.414,409.87 405.439,409.722C406.742,401.965 380.843,407.887 358.227,383.522C358.348,381.382 358.521,379.166 358.762,376.849C359.685,367.944 361.988,359.869 365.257,352.567C382.061,372.949 408.358,392.512 409.222,389.011C410.178,385.141 395.223,376.82 369.87,343.757C374.071,336.8 379.152,330.675 384.664,325.332C393.481,351.829 414.586,371.324 416.12,368.551C416.151,368.493 416.176,368.427 416.193,368.353C416.943,364.891 400.373,344.072 392.631,318.338C396.992,314.87 401.471,311.847 405.883,309.211C409.01,329.567 421.079,345.017 423.397,342.222C423.502,342.095 423.586,341.935 423.649,341.746C424.917,337.92 417.887,321.61 415.756,303.883C428.785,297.575 439.736,295.002 442.842,295.566C449.258,296.731 457.693,298.743 467.778,322.994C459.704,342.983 446.447,358.362 451.126,360.763C455.058,362.78 464.028,348.268 470.749,330.66C472.664,335.955 474.636,342.104 476.659,349.183C463.823,366.399 445.527,383.376 448.999,387.23C452.126,390.702 465.701,376.556 479.132,358.244C481.709,368.456 482.622,378.217 482.013,387.223C469.105,395.711 455.801,403.3 458.278,405.949C460.359,408.175 470.043,404.04 480.638,397.285C480.09,399.89 479.405,402.413 478.578,404.839L478.578,404.839Z" style="fill:rgb(78,154,6);fill-rule:nonzero;"/>
    </g>
</svg>
