<?xml version="1.0" encoding="UTF-8" standalone="no"?>
<!DOCTYPE svg PUBLIC "-//W3C//DTD SVG 1.1//EN" "http://www.w3.org/Graphics/SVG/1.1/DTD/svg11.dtd">
<svg width="100%" height="100%" viewBox="0 0 9934 14044" version="1.1" xmlns="http://www.w3.org/2000/svg" xmlns:xlink="http://www.w3.org/1999/xlink" xml:space="preserve" xmlns:serif="http://www.serif.com/" style="fill-rule:evenodd;clip-rule:evenodd;stroke-linejoin:round;stroke-miterlimit:2;">
    <g id="path826" transform="matrix(63.8235,0,0,63.8235,-12775,-12567.2)">
        <path d="M237.051,347.471C252.954,362.44 273.672,366.19 281.586,361.374C293.364,354.205 286.433,334.91 288.168,331.356C309.085,351.579 325.57,349.615 344.803,326.429C349.798,320.407 349.436,305.932 344.113,289.773C342.951,292.616 341.597,295.25 339.977,297.538C328.654,313.539 312.086,320.646 308.493,317.873C308.253,317.688 308.071,317.459 307.952,317.186C305.032,310.478 322.733,302.762 329.701,292.06C332.458,287.824 334.642,279.81 336.285,271.672C330.689,261.313 323.194,251.268 313.89,243.214C313.257,242.666 312.617,242.136 311.974,241.616C312.999,251.932 314.014,263.905 312.191,270.513C306.861,289.84 297.347,301.679 295.192,299.93C291.883,297.244 302.92,280.669 305.836,268.938C307.925,260.531 306.404,245.023 305.371,236.839C297.243,231.606 288.57,228.216 280.001,226.13C286.634,235.373 289.625,244.382 288.592,254.455C286.952,270.442 281.89,286.187 279.196,285.157C279.111,285.125 279.037,285.069 278.972,284.991C276.952,282.581 283.815,258.85 282.66,248.245C281.853,240.838 278.918,232.475 274.172,224.902C267.972,223.792 261.906,223.313 256.226,223.26C260.231,229.333 263.273,235.067 264.115,239.504C265.793,248.346 264.091,267.559 260.079,266.77C259.829,266.721 259.611,266.595 259.423,266.401C256.6,263.494 260.373,245.185 257.394,237.306C256.177,234.086 253.008,228.749 249.566,223.385C234.757,224.092 223.728,227.424 221.91,228.903C219.514,230.853 211.392,245.709 209.408,266.15C212.201,269.885 215.158,272.983 217.942,274.886C225.54,280.082 245.476,290.475 244.643,293.351C243.835,296.138 230.327,292.668 222.493,285.661C222.24,285.435 221.994,285.205 221.753,284.972C218.485,281.797 213.648,277.036 209.034,271.879C208.994,273 208.966,274.129 208.968,275.276C208.974,281.349 210.466,287.999 212.408,294.737C219.941,300.95 227.48,304.948 234.585,307.398C245.924,311.308 260.232,313.583 259.761,316.066C259.291,318.549 242.682,320.345 232.797,314.862C228.472,312.462 222.221,307.238 216.341,301.857C215.504,301.092 214.68,300.325 213.865,299.561C215.737,305.576 217.765,311.572 219.249,317.204C219.81,319.332 220.461,321.375 221.185,323.344C226.608,327.778 231.266,330.557 237.455,331.926C248.355,334.337 260.18,331.404 259.967,335.582C259.754,339.761 245.53,340.333 239.182,337.783C234.899,336.063 230.744,333.484 222.831,327.406C226.466,335.557 231.461,342.208 237.052,347.47L237.051,347.471Z" style="fill:rgb(78,154,6);fill-rule:nonzero;"/>
    </g>
    <g transform="matrix(0.74391,0.291473,-0.36481,0.931082,3801.3,-1041.39)">
        <path d="M5225,5991C5254.18,5991 5282.77,5994.7 5311.01,6002.02C5429.53,6032.73 5522.7,6124.19 5579.03,6230.05C5677.06,6414.26 5677.06,6651.74 5579.03,6835.95C5522.7,6941.81 5429.53,7033.27 5311.01,7063.98C5282.77,7071.3 5254.18,7075 5225,7075C5195.82,7075 5167.23,7071.3 5138.99,7063.98C5020.48,7033.27 4927.3,6941.81 4870.97,6835.95C4772.94,6651.74 4772.94,6414.26 4870.97,6230.05C4927.3,6124.19 5020.48,6032.73 5138.99,6002.02C5167.23,5994.7 5195.82,5991 5225,5991Z" style="fill:rgb(235,235,235);"/>
    </g>
    <g transform="matrix(0.748322,0,0,1,1261.91,0)">
        <path d="M4865,5869C4884.89,5869 4904.58,5872.97 4922.97,5880.72C4940.6,5888.14 4956.82,5899.14 4970.34,5912.66C5027.97,5970.29 5027.97,6065.71 4970.34,6123.34C4956.82,6136.86 4940.6,6147.86 4922.97,6155.28C4904.58,6163.03 4884.89,6167 4865,6167C4845.11,6167 4825.42,6163.03 4807.03,6155.28C4789.4,6147.86 4773.18,6136.86 4759.66,6123.34C4702.03,6065.71 4702.03,5970.29 4759.66,5912.66C4773.18,5899.14 4789.4,5888.14 4807.03,5880.72C4825.42,5872.97 4845.11,5869 4865,5869Z" style="fill:rgb(235,235,235);"/>
    </g>
    <g transform="matrix(1,0,0,0.662428,0,2727.25)">
        <path d="M4253.5,8079C4311.19,8079 4368.64,8090.55 4421.78,8113.01C4473.03,8134.68 4519.93,8166.4 4559.26,8205.74C4598.6,8245.07 4630.32,8291.97 4651.99,8343.22C4668.68,8382.7 4679.46,8424.65 4683.77,8467.31C4688.19,8511.1 4686.01,8555.49 4677.21,8598.62C4649.01,8736.72 4551.53,8855.14 4421.78,8909.99C4368.64,8932.45 4311.19,8944 4253.5,8944C4195.81,8944 4138.36,8932.45 4085.22,8909.99C4033.97,8888.32 3987.07,8856.6 3947.74,8817.26C3908.4,8777.93 3876.68,8731.03 3855.01,8679.78C3838.32,8640.3 3827.54,8598.35 3823.24,8555.69C3818.81,8511.9 3820.99,8467.51 3829.79,8424.38C3857.99,8286.28 3955.47,8167.86 4085.22,8113.01C4138.36,8090.55 4195.81,8079 4253.5,8079Z" style="fill:rgb(235,235,235);"/>
    </g>
    <g transform="matrix(1,0,0,0.725434,0,1748.99)">
        <path d="M3120,6370C3143.08,6370 3166.06,6374.62 3187.31,6383.6C3207.81,6392.27 3226.57,6404.96 3242.31,6420.69C3258.04,6436.43 3270.73,6455.19 3279.4,6475.69C3316.1,6562.51 3274.06,6665.73 3187.31,6702.4C3166.06,6711.38 3143.08,6716 3120,6716C3096.93,6716 3073.94,6711.38 3052.69,6702.4C2965.94,6665.73 2923.9,6562.51 2960.6,6475.69C2969.27,6455.19 2981.96,6436.43 2997.7,6420.69C3013.43,6404.96 3032.19,6392.27 3052.69,6383.6C3073.94,6374.62 3096.93,6370 3120,6370Z" style="fill:rgb(235,235,235);"/>
    </g>
</svg>
