<?xml version="1.0" encoding="UTF-8" standalone="no"?>
<!DOCTYPE svg PUBLIC "-//W3C//DTD SVG 1.1//EN" "http://www.w3.org/Graphics/SVG/1.1/DTD/svg11.dtd">
<svg width="100%" height="100%" viewBox="0 0 800 400" version="1.1" xmlns="http://www.w3.org/2000/svg" xmlns:xlink="http://www.w3.org/1999/xlink" xml:space="preserve" xmlns:serif="http://www.serif.com/" style="fill-rule:evenodd;clip-rule:evenodd;stroke-linecap:round;stroke-linejoin:round;stroke-miterlimit:1.5;">
    <g transform="matrix(0.919145,0.393919,-0.393919,0.919145,506.808,-771.323)">
        <path d="M21.284,1044.88C26.996,1040.08 32.71,1035.28 38.29,1030.32C43.104,1026.05 47.892,1021.74 52.461,1017.2C58.145,1011.56 62.068,1002.9 69.694,1000.46C72.967,999.411 76.294,1003.22 79.714,1002.89C82.557,1002.61 85.382,1001.6 87.822,1000.11C102.057,991.439 112.651,977.733 124.915,966.745C130.471,961.768 139.776,955.339 144.959,949.463C153.874,939.356 158.118,924.03 170.671,917.376C175.017,915.072 176.396,916.822 180.775,916.434C181.969,916.328 189.964,914.329 191.346,914.387C203.972,914.914 214.275,930.642 216.189,941.812C216.842,945.625 215.746,952.021 217.792,955.503C220.174,959.557 228.832,959.205 232.129,956.852C236.1,954.017 237.646,948.861 238.56,944.423C242.541,925.094 242.269,904.492 248.094,885.596C249.948,879.584 253.692,872.459 259.968,869.886C273.852,864.195 289.054,868.117 300.929,856.401C308.03,849.395 306.326,838.156 310.842,829.671C316.338,819.345 328.977,811.809 337.248,805.865C337.539,805.656 347.671,798.95 350.914,800.314C354.591,801.86 357.538,804.775 360.657,807.261C365.654,811.242 370.933,815.97 373.816,821.869C380.522,835.593 373.443,851.477 370.453,865.032C370.402,865.265 363.514,885.301 372.245,885.924C375.293,886.142 378.493,885.803 381.325,884.654C388.154,881.886 394.84,874.299 399.27,869.023C409.216,857.178 417.401,843.953 426.863,831.718C441.324,813.017 460.176,804.551 481.385,795.191C487.254,792.601 503.63,783.169 512.55,784.402C530.94,786.944 520.465,809.748 517.913,820.101C516.896,824.228 515.818,829.764 521.634,830.684C526.421,831.441 534.987,819.263 538.181,817.126C543.67,813.453 549.702,816.664 555.113,813.305C560.851,809.742 559.694,808.406 565.696,805.096C577.997,798.31 597.248,796.325 609.113,805.077C611.557,806.881 616.566,810.613 617.472,814.486C620.76,828.537 589.826,865.876 589.807,865.905C585.919,872.075 599.249,878.694 602.308,881.943C603.523,883.233 604.486,885.51 603.218,887.213C601.257,889.848 599.008,892.319 596.44,894.368C593.516,896.703 590.292,898.715 586.881,900.254C566.944,909.246 561.348,909.374 541.051,916.233C539.237,916.846 526.802,920.543 527.115,924.962C527.277,927.242 533,928.548 533.055,928.562C535.004,929.077 552.71,932.233 557.722,934.497C559.732,935.405 563.239,937.065 563.028,939.987C562.409,948.53 536.853,958.964 535.127,959.682C518.133,966.744 499.565,968.245 481.401,967.213C472.684,966.717 449.374,960.537 439.289,968.48C437.865,969.601 438.398,971.802 439.648,972.694C441.844,974.262 444.277,975.494 446.744,976.586C454.695,980.102 463.047,982.706 470.869,986.503C482.094,991.951 493.111,1000.21 497.283,1012.44C497.863,1014.14 497.343,1018.95 495.709,1020.22C490.174,1024.53 482.582,1025.16 476.005,1027.6C464.363,1031.91 458.119,1035.87 445.781,1036.99C434.796,1037.99 423.742,1038.18 412.712,1038.18C396.353,1038.18 379.708,1034.33 364.643,1028.09C354.052,1023.7 345.307,1017.05 333.725,1015.36C331.073,1014.97 328.366,1014.86 325.691,1015.02C323.639,1015.15 321.586,1015.55 319.638,1016.21C318.402,1016.63 314.179,1018.27 314.602,1020.84C314.986,1023.17 319.575,1025.77 320.837,1026.39C325.968,1028.91 331.217,1031.19 336.516,1033.34C344.213,1036.45 352.034,1039.24 359.811,1042.15C374.257,1047.55 396.76,1068.76 381.659,1085.19C379.174,1087.89 376.412,1090.43 373.261,1092.32C357.296,1101.86 335.637,1096.26 318.859,1094.16C314.366,1093.6 306.401,1092.45 301.625,1093.51C292.511,1095.54 284.679,1107.57 274.764,1105.59C247.791,1100.19 232.606,1072.11 209.453,1059.44C200.985,1054.81 185.244,1047.92 175.57,1053.58C171.718,1055.84 171.774,1060.98 171.89,1064.58C172.22,1074.8 179.482,1093.03 163.712,1095.57C141.614,1099.12 125.489,1086.55 104.946,1082.19C88.156,1078.63 70.572,1084.35 54.184,1078.7C45.606,1075.74 40.41,1069.35 33.439,1064.15C30.457,1061.92 24.825,1059.46 22.594,1055.87C21.686,1054.41 21.321,1052.64 21.118,1050.93C20.879,1048.93 21.083,1046.89 21.284,1044.88Z" style="fill:rgb(239,176,76);stroke:rgb(179,107,59);stroke-opacity:0.69;stroke-width:0.69px;"/>
    </g>
</svg>
