<?xml version="1.0" encoding="UTF-8" standalone="no"?>
<!DOCTYPE svg PUBLIC "-//W3C//DTD SVG 1.1//EN" "http://www.w3.org/Graphics/SVG/1.1/DTD/svg11.dtd">
<svg width="100%" height="100%" viewBox="0 0 700 420" version="1.1" xmlns="http://www.w3.org/2000/svg" xmlns:xlink="http://www.w3.org/1999/xlink" xml:space="preserve" xmlns:serif="http://www.serif.com/" style="fill-rule:evenodd;clip-rule:evenodd;stroke-linecap:round;stroke-linejoin:round;stroke-miterlimit:1.5;">
    <g transform="matrix(1,0,0,1,65.607,-724.959)">
        <path d="M34.294,1083.42C34.294,1083.42 62.2,1054.7 70.476,1035.88C76.753,1021.62 73.679,1023.71 85.106,1011.79C99.858,996.396 109.479,965.369 122.201,951.158C133.04,939.05 132.824,913.807 138.963,901.165C146.658,885.32 157.202,872.45 165.395,868.794C178.471,862.958 204.108,902.055 205.619,925.65C206.97,946.732 219.13,938.783 222.376,937.272C233.816,931.947 221.126,847.953 228.621,827.148C236.675,804.789 255.589,821.052 264.714,814.78C268.961,811.861 279.415,809.285 280.91,799.524C282.676,787.996 279.85,768.288 287.313,757.862C299.365,741.024 317.049,727.731 320.965,731.685C338.491,749.381 351.211,764.248 355.462,783.762C362.285,815.081 349.128,862.065 362.205,865.529C387.664,872.273 402.14,792.359 428.502,772.194C436.791,765.853 451.729,758.7 462.858,754.184C475.771,748.944 486.933,742.277 494.676,744.971C521.615,754.341 501.884,803.843 508.9,810.544C520.217,821.354 549.954,787.906 572.267,796.686C576.856,798.492 576.627,806.345 580.996,808.632C589.499,813.082 608.783,801.61 623.286,823.391C629.339,832.482 613.227,848.667 589.242,873.645C583.04,880.103 605.355,891.935 600.175,899.078C584.741,920.363 533.441,910.831 528.327,924.648C523.214,938.465 600.353,960.627 569.495,981.979C517.118,1018.22 460.769,975.729 450.301,990.242C445.338,997.124 466.081,1003.7 484.489,1016.47C504.906,1030.64 518.99,1050.7 512.699,1061.02C510.78,1064.16 502.17,1063.27 492.627,1067.44C469.072,1077.75 455.515,1075.58 427.261,1072.02C404.569,1069.15 378.449,1056.51 363.062,1044.13C349.707,1033.39 335.085,1030.69 328.605,1032.83C313.291,1037.89 334.528,1049.06 372.3,1069.89C395.259,1082.55 409.343,1109.5 398.016,1125.44C378.951,1152.28 333.391,1123.24 315.02,1125.04C305.25,1126 296.945,1139.83 287.792,1136.27C252.587,1122.61 243.969,1082.74 202.686,1083C175.863,1083.17 216.234,1131.67 191.52,1137.04C166.425,1142.49 150.919,1126.83 128.508,1121.69C108.102,1117.02 86.881,1119.07 71.092,1112.94C55.652,1106.96 52.579,1101.41 41.399,1097.54C33.465,1094.79 34.294,1083.42 34.294,1083.42Z" style="fill:rgb(16,48,0);stroke:rgb(92,120,33);stroke-width:0.69px;"/>
    </g>
</svg>
