<?xml version="1.0" encoding="UTF-8" standalone="no"?>
<!DOCTYPE svg PUBLIC "-//W3C//DTD SVG 1.1//EN" "http://www.w3.org/Graphics/SVG/1.1/DTD/svg11.dtd">
<svg width="100%" height="100%" viewBox="0 0 9934 14044" version="1.1" xmlns="http://www.w3.org/2000/svg" xmlns:xlink="http://www.w3.org/1999/xlink" xml:space="preserve" xmlns:serif="http://www.serif.com/" style="fill-rule:evenodd;clip-rule:evenodd;stroke-linejoin:round;stroke-miterlimit:2;">
    <g id="g1170" transform="matrix(7.80135,-17.6347,17.6347,7.80135,-6710.47,2535.86)">
        <path id="path837" d="M-203.219,750.131C-207.704,746.837 -181.596,737.277 -165.662,729.8C-165.662,729.8 -184.087,720.97 -164.235,709.239C-164.235,709.239 -144.382,640.657 -125.432,675.85C-125.432,675.85 -111.896,679.911 -118.664,661.863C-118.664,661.863 -114.487,572.602 -82.117,620.353C-82.117,620.353 -65.423,652.388 -62.716,617.646C-60.009,582.904 -50.534,563.052 -50.534,563.052C-50.519,563.018 -25.267,524.979 -9.475,561.698C-9.475,561.698 4.963,609.073 18.95,578.392C32.937,547.711 48.278,524.7 48.278,524.7C48.278,524.7 96.787,477.937 92.946,530.114C92.946,530.114 83.821,572.741 111.896,526.505C140.352,479.642 158.429,522.42 158.259,527.195C158.259,527.195 162.881,552.674 187.246,523.347C191.221,518.313 201.426,515.768 206.861,522.596C210.302,526.918 213.052,534.514 207.098,554.028C207.098,554.028 198.074,571.624 258.986,578.392C259.915,578.318 296.08,590.693 240.487,620.353C237.944,621.564 233.471,636.956 244.584,649.046C244.584,649.046 242.743,666.826 202.135,653.742C202.135,653.742 174.612,650.132 216.122,679.911C217.103,680.288 223.068,690.377 220.093,698.609C216.676,708.063 203.213,718.643 171.454,706.531C171.454,706.531 81.666,660.058 132.2,725.03C132.2,725.03 144.01,745.713 134.649,754.98C127.129,762.424 108.046,767.75 87.983,755.26C87.983,755.26 -13.536,675.399 25.718,743.529C26.703,742.255 41.503,762.75 34.602,771.144C29.342,777.543 5.514,780.997 -28.876,756.614C-28.876,756.614 -79.045,715.685 -72.191,734.957C-72.191,734.957 -40.156,774.211 -110.091,748.041C-110.091,748.041 -143.342,763.888 -163.784,739.469C-165.532,737.631 -165.921,734.999 -165.017,731.614L-203.219,750.131Z" style="fill:rgb(62,114,34);fill-rule:nonzero;"/>
    </g>
</svg>
