<?xml version="1.0" encoding="UTF-8" standalone="no"?>
<!DOCTYPE svg PUBLIC "-//W3C//DTD SVG 1.1//EN" "http://www.w3.org/Graphics/SVG/1.1/DTD/svg11.dtd">
<svg width="100%" height="100%" viewBox="0 0 800 800" version="1.1" xmlns="http://www.w3.org/2000/svg" xmlns:xlink="http://www.w3.org/1999/xlink" xml:space="preserve" xmlns:serif="http://www.serif.com/" style="fill-rule:evenodd;clip-rule:evenodd;stroke-linecap:round;stroke-linejoin:round;stroke-miterlimit:1.5;">
    <path d="M57.407,411.99L173.831,411.99L227.96,278.663L309.969,278.663L371.91,410.722L505.618,410.722L334.22,11.236L209.908,11.236L57.407,411.99Z" style="fill:none;stroke:black;stroke-width:1px;"/>
    <path d="M241.849,192.253L303.857,192.253L271.656,70.398L241.849,192.253Z" style="fill:none;stroke:black;stroke-width:1px;"/>
    <path d="M260.652,645.722L398.849,124.969L628.86,176.49L678.822,230.239L695.036,275.954L688.447,359.664L647.902,405.538L596.186,418.217L654.548,464.391L681.96,538.423L668.38,614.321L620.137,679.002L539.945,710.187L437.975,703.435L312.514,667.08L260.652,645.722Z" style="fill:none;stroke:black;stroke-width:1px;"/>
    <path d="M466.14,309.874L530.615,324.184L565.845,325.213L582.208,298.575L587.613,271.204L575.363,241.919L540.351,226.205L485.551,214.56L466.14,309.874Z" style="fill:none;stroke:black;stroke-width:1px;"/>
    <path d="M390.683,591.947L461.268,612.571L507.169,612.314L548.884,590.188L559.83,541.234L553.197,496.323L514.915,463.388L472.55,452.027L430.313,440.157L390.683,591.947Z" style="fill:none;stroke:black;stroke-width:1px;"/>
    <path d="M277.298,349.755L235.755,241.934L160.507,288.819L114.488,333.047L70.03,395.777L37.024,477.458L37.383,568.95L76.403,655.623L129.016,713.543L230.145,752.825L341.525,742.597L417.933,726.094L470.792,683.971L493.041,651.372L425.791,582.104L360.428,623.226L302.915,648.101L217.244,654.133L153.487,613.211L123.832,542.008L126.071,465.678L203.519,394.309L245.825,361.07L277.298,349.755Z" style="fill:none;stroke:black;stroke-width:1px;"/>
</svg>
