<?xml version="1.0" encoding="UTF-8" standalone="no"?>
<!DOCTYPE svg PUBLIC "-//W3C//DTD SVG 1.1//EN" "http://www.w3.org/Graphics/SVG/1.1/DTD/svg11.dtd">
<svg width="100%" height="100%" viewBox="0 0 1000 1000" version="1.1" xmlns="http://www.w3.org/2000/svg" xmlns:xlink="http://www.w3.org/1999/xlink" xml:space="preserve" xmlns:serif="http://www.serif.com/" style="fill-rule:evenodd;clip-rule:evenodd;stroke-linejoin:round;stroke-miterlimit:2;">
    <g transform="matrix(0.0977754,0.0209756,0.0209756,-0.0977754,28.6063,406.853)">
        <g>
            <path d="M7008.6,4964.4C6900.9,4935.6 6799,4900.9 6783.6,4887.5C6733.6,4847.1 6750.9,4760.6 6860.5,4502.9C6920.1,4364.4 7002.8,4147.2 7045.1,4018.3C7147,3714.5 7158.6,3570.3 7104.7,3251.1C7072,3060.7 7062.4,2899.2 7054.7,2455C7039.3,1593.5 6950.9,1055.1 6725.9,474.4C6158.6,-992.8 4928,-1887 2505.1,-2592.7C1991.7,-2740.8 1814.8,-2815.8 1432.1,-3044.6C1199.4,-3181.1 849.4,-3436.9 803.3,-3500.3C780.2,-3534.9 774.5,-3602.2 774.5,-3819.5C774.5,-4154.1 759.1,-4131 1122.6,-4309.8C1674.5,-4581 2191.7,-4755.9 2505.2,-4777.1C2774.4,-4798.3 3574.4,-4700.2 4137.8,-4581C6333.8,-4111.8 7939.4,-2923.4 8727.8,-1185.1C9095.1,-375.5 9270.1,568.6 9216.2,1435.9C9177.7,2049.3 9079.7,2493.5 8916.2,2789.6C8789.3,3022.3 8675.8,3143.4 8302.8,3445.3C7814.4,3839.5 7597.1,4158.7 7456.7,4687.5C7356.6,5064.4 7360.5,5062.5 7008.6,4964.4Z" style="fill-rule:nonzero;"/>
        </g>
    </g>
</svg>
