<?xml version="1.0" encoding="UTF-8" standalone="no"?>
<!DOCTYPE svg PUBLIC "-//W3C//DTD SVG 1.1//EN" "http://www.w3.org/Graphics/SVG/1.1/DTD/svg11.dtd">
<svg width="100%" height="100%" viewBox="0 0 800 800" version="1.1" xmlns="http://www.w3.org/2000/svg" xmlns:xlink="http://www.w3.org/1999/xlink" xml:space="preserve" xmlns:serif="http://www.serif.com/" style="fill-rule:evenodd;clip-rule:evenodd;stroke-linejoin:round;stroke-miterlimit:1.41421;">
    <g transform="matrix(15.1674,0,0,15.1674,-2332.86,-5275.12)">
        <path d="M160.712,376.346L159.733,376.346L159.733,367.756L160.788,367.756L160.788,370.821C161.233,370.262 161.801,369.983 162.493,369.983C162.876,369.983 163.238,370.06 163.58,370.214C163.922,370.369 164.203,370.585 164.423,370.865C164.644,371.144 164.817,371.481 164.942,371.876C165.067,372.27 165.13,372.692 165.13,373.141C165.13,374.208 164.866,375.032 164.338,375.614C163.811,376.196 163.178,376.487 162.44,376.487C161.706,376.487 161.13,376.18 160.712,375.567L160.712,376.346ZM160.7,373.188C160.7,373.934 160.801,374.473 161.005,374.805C161.337,375.348 161.786,375.62 162.352,375.62C162.813,375.62 163.212,375.419 163.547,375.019C163.883,374.619 164.051,374.022 164.051,373.229C164.051,372.417 163.89,371.817 163.568,371.43C163.246,371.043 162.856,370.85 162.399,370.85C161.938,370.85 161.54,371.05 161.204,371.451C160.868,371.851 160.7,372.43 160.7,373.188Z" style="fill-rule:nonzero;"/>
    </g>
    <g transform="matrix(15.1674,0,0,15.1674,-2332.86,-5275.12)">
        <path d="M166.02,373.235C166.02,372.083 166.34,371.229 166.981,370.674C167.516,370.213 168.169,369.983 168.938,369.983C169.794,369.983 170.493,370.263 171.036,370.824C171.579,371.384 171.85,372.159 171.85,373.147C171.85,373.948 171.73,374.578 171.49,375.037C171.25,375.496 170.9,375.852 170.441,376.106C169.982,376.36 169.481,376.487 168.938,376.487C168.067,376.487 167.363,376.208 166.826,375.649C166.289,375.09 166.02,374.286 166.02,373.235ZM167.104,373.235C167.104,374.032 167.278,374.628 167.626,375.025C167.973,375.421 168.411,375.62 168.938,375.62C169.462,375.62 169.897,375.42 170.245,375.022C170.592,374.624 170.766,374.016 170.766,373.2C170.766,372.43 170.591,371.847 170.242,371.451C169.892,371.054 169.458,370.856 168.938,370.856C168.411,370.856 167.973,371.053 167.626,371.448C167.278,371.842 167.104,372.438 167.104,373.235Z" style="fill-rule:nonzero;"/>
    </g>
    <g transform="matrix(15.1674,0,0,15.1674,-2332.86,-5275.12)">
        <path d="M172.694,373.235C172.694,372.083 173.014,371.229 173.655,370.674C174.19,370.213 174.842,369.983 175.612,369.983C176.467,369.983 177.167,370.263 177.71,370.824C178.253,371.384 178.524,372.159 178.524,373.147C178.524,373.948 178.404,374.578 178.164,375.037C177.923,375.496 177.574,375.852 177.115,376.106C176.656,376.36 176.155,376.487 175.612,376.487C174.741,376.487 174.037,376.208 173.5,375.649C172.963,375.09 172.694,374.286 172.694,373.235ZM173.778,373.235C173.778,374.032 173.952,374.628 174.299,375.025C174.647,375.421 175.085,375.62 175.612,375.62C176.135,375.62 176.571,375.42 176.919,375.022C177.266,374.624 177.44,374.016 177.44,373.2C177.44,372.43 177.265,371.847 176.916,371.451C176.566,371.054 176.131,370.856 175.612,370.856C175.085,370.856 174.647,371.053 174.299,371.448C173.952,371.842 173.778,372.438 173.778,373.235Z" style="fill-rule:nonzero;"/>
    </g>
    <g transform="matrix(15.1674,0,0,15.1674,-2332.86,-5275.12)">
        <rect x="179.737" y="367.756" width="1.055" height="8.59"/>
    </g>
    <g transform="matrix(15.1674,0,0,15.1674,-2332.86,-5275.12)">
        <path d="M182.005,374.489L183.047,374.325C183.106,374.743 183.269,375.063 183.537,375.286C183.804,375.508 184.178,375.62 184.659,375.62C185.143,375.62 185.503,375.521 185.737,375.324C185.971,375.126 186.088,374.895 186.088,374.629C186.088,374.391 185.985,374.204 185.778,374.067C185.633,373.973 185.274,373.854 184.7,373.709C183.926,373.514 183.39,373.345 183.091,373.203C182.793,373.06 182.566,372.863 182.412,372.611C182.257,372.359 182.18,372.081 182.18,371.776C182.18,371.499 182.244,371.242 182.371,371.005C182.498,370.769 182.671,370.573 182.889,370.417C183.053,370.295 183.277,370.193 183.56,370.109C183.843,370.025 184.147,369.983 184.471,369.983C184.96,369.983 185.388,370.053 185.757,370.194C186.127,370.334 186.399,370.525 186.575,370.765C186.751,371.005 186.872,371.327 186.938,371.729L185.907,371.87C185.86,371.549 185.724,371.299 185.5,371.12C185.275,370.94 184.958,370.85 184.547,370.85C184.063,370.85 183.717,370.93 183.51,371.09C183.303,371.251 183.2,371.438 183.2,371.653C183.2,371.79 183.243,371.913 183.329,372.022C183.415,372.135 183.549,372.229 183.733,372.303C183.838,372.342 184.149,372.432 184.665,372.573C185.411,372.772 185.931,372.935 186.226,373.062C186.521,373.189 186.753,373.374 186.921,373.616C187.088,373.858 187.172,374.159 187.172,374.518C187.172,374.87 187.07,375.201 186.865,375.511C186.66,375.822 186.364,376.062 185.977,376.232C185.59,376.402 185.153,376.487 184.665,376.487C183.856,376.487 183.24,376.319 182.816,375.983C182.392,375.647 182.122,375.149 182.005,374.489Z" style="fill-rule:nonzero;"/>
    </g>
    <g transform="matrix(15.1674,0,0,15.1674,-2332.86,-5275.12)">
        <path d="M192.505,376.346L192.505,375.432C192.02,376.135 191.362,376.487 190.53,376.487C190.163,376.487 189.82,376.417 189.502,376.276C189.183,376.135 188.947,375.959 188.793,375.746C188.638,375.533 188.53,375.272 188.467,374.963C188.424,374.756 188.403,374.428 188.403,373.979L188.403,370.124L189.458,370.124L189.458,373.575C189.458,374.126 189.479,374.497 189.522,374.688C189.588,374.965 189.729,375.183 189.944,375.341C190.159,375.5 190.424,375.579 190.741,375.579C191.057,375.579 191.354,375.498 191.631,375.335C191.909,375.173 192.105,374.953 192.22,374.673C192.336,374.394 192.393,373.989 192.393,373.458L192.393,370.124L193.448,370.124L193.448,376.346L192.505,376.346Z" style="fill-rule:nonzero;"/>
    </g>
    <g transform="matrix(15.1674,0,0,15.1674,-2332.86,-5275.12)">
        <path d="M195.088,376.346L195.088,370.124L196.038,370.124L196.038,371.067C196.28,370.626 196.504,370.334 196.709,370.194C196.914,370.053 197.139,369.983 197.385,369.983C197.741,369.983 198.102,370.096 198.469,370.323L198.106,371.301C197.848,371.149 197.59,371.073 197.333,371.073C197.102,371.073 196.895,371.142 196.712,371.281C196.528,371.419 196.397,371.612 196.319,371.858C196.202,372.233 196.143,372.643 196.143,373.088L196.143,376.346L195.088,376.346Z" style="fill-rule:nonzero;"/>
    </g>
    <g transform="matrix(15.1674,0,0,15.1674,-2332.86,-5275.12)">
        <path d="M199.348,376.346L199.348,370.944L198.417,370.944L198.417,370.124L199.348,370.124L199.348,369.461C199.348,369.043 199.385,368.733 199.46,368.53C199.561,368.256 199.74,368.035 199.996,367.865C200.252,367.695 200.61,367.61 201.071,367.61C201.368,367.61 201.696,367.645 202.055,367.715L201.897,368.635C201.678,368.596 201.471,368.577 201.276,368.577C200.956,368.577 200.729,368.645 200.596,368.782C200.463,368.918 200.397,369.174 200.397,369.549L200.397,370.124L201.61,370.124L201.61,370.944L200.397,370.944L200.397,376.346L199.348,376.346Z" style="fill-rule:nonzero;"/>
    </g>
</svg>
