<?xml version="1.0" encoding="UTF-8" standalone="no"?>
<!DOCTYPE svg PUBLIC "-//W3C//DTD SVG 1.1//EN" "http://www.w3.org/Graphics/SVG/1.1/DTD/svg11.dtd">
<svg width="100%" height="100%" viewBox="0 0 1200 1500" version="1.1" xmlns="http://www.w3.org/2000/svg" xmlns:xlink="http://www.w3.org/1999/xlink" xml:space="preserve" xmlns:serif="http://www.serif.com/" style="fill-rule:evenodd;clip-rule:evenodd;stroke-miterlimit:2;">
    <g id="path1906" transform="matrix(1,0,0,1,11.683,14.4607)">
        <path d="M129.667,440.428C131.289,440.37 132.733,437.604 134.054,437.191C137.329,436.168 140.814,435.983 144.152,435.189C144.661,435.068 148.618,433.022 149.377,434.048C150.53,435.607 147.496,438.777 147.357,439.889C146.876,443.724 154.555,442.687 152.166,446.9C150.778,449.348 148.315,451.135 147.172,453.706C146.711,454.743 148.196,456.09 147.64,457.08C145.456,460.969 140.974,460.921 138.297,464.16C137.487,465.139 138.18,466.877 137.372,467.858C136.583,468.816 134.985,468.668 133.982,469.399C131.058,471.529 132.899,475.822 133.674,478.337C134.028,479.486 134.056,480.877 134.906,481.727L136.447,483.577L139.221,482.96C139.434,482.109 140.809,483.859 141.687,483.885C144.365,483.964 147.145,484.073 149.7,483.268C152.813,482.288 155.169,479.458 158.33,478.645C161.139,477.923 164.164,479.262 167.03,478.812C172.329,477.98 170.81,475.502 175.281,473.406C178.414,471.937 182.191,471.974 185.144,470.17C186.211,469.518 185.567,467.579 186.376,466.625C188.739,463.843 192.489,463.891 194.402,460.518C198.232,453.765 195.907,451.523 198.416,444.441C200.71,437.968 209.108,438.137 213.89,435.2C217.681,432.871 215.304,430.854 216.734,427.638C217.524,425.861 220.289,426.303 219.97,423.631C219.829,422.441 217.618,421.636 218.121,420.549C218.93,418.804 221.738,418.847 222.898,417.313C223.403,416.646 221.724,415.285 222.436,414.847C224.307,413.696 226.93,414.568 228.908,413.614C230,413.088 230.108,411.43 231.066,410.687C235.969,406.882 242.544,403.315 248.788,402.365C254.309,401.525 253.583,404.6 258.65,405.293C259.811,405.452 260.916,404.04 262.04,404.368C262.689,404.558 261.813,405.96 262.348,406.372C264.222,407.812 266.713,406.481 268.667,406.834C271.597,407.363 274.802,407.519 277.296,409.145C280.788,411.422 282.834,415.412 285.994,418.13C288.088,419.931 289.509,411.651 292.4,412.896C295.517,414.238 298.539,415.919 301.181,418.05C302.588,419.185 303.959,424.71 306.73,424.71C306.73,425.345 308.01,423.965 308.579,424.247C311.505,425.698 314.054,427.81 316.737,429.67C321.426,432.92 326.438,435.779 330.694,439.578C334.207,442.714 337.546,453.201 344.716,449.969C346.855,449.005 345.055,446.201 344.798,445.196C344.565,444.291 343.505,441.993 344.331,442.431C348.378,444.579 351.263,448.533 355.272,450.753C360.202,453.483 367.185,452.215 371.195,456.88C378.762,465.681 382.571,470.66 384.203,482.477C385.351,490.786 384.405,499.278 385.322,507.616C385.386,508.199 386.727,507.57 387.017,508.079C387.779,509.417 385.807,510.701 385.784,511.777C385.749,513.441 385.983,515.146 386.554,516.708C389.327,524.286 397.499,528.28 399.499,536.279L400.732,541.365C402.514,542.535 404.586,543.069 405.047,545.371C405.047,552.151 408.237,557.374 407.733,564.225C407.22,571.205 403.308,577.528 401.814,584.218C401.41,586.028 401.868,590.922 404.462,591.666C406.685,592.304 408.362,587.768 409.512,587.193C413.982,584.958 422.604,581.966 426.123,587.92C429.871,594.262 423.763,601.227 428.034,607.597C430.926,611.911 438.477,609.398 442.19,611.157C447.769,613.799 447.531,618.117 450.661,622.576C453.203,626.199 457.812,628.683 458.982,633.364L459.317,634.539C458.227,635.629 460.579,636.013 460.677,635.983C461.274,635.805 462.221,633.918 463.297,634.905C464.95,636.42 467.136,640.745 466.996,643.072C466.815,646.078 464.471,649.486 461.448,650.315C460.784,650.497 456.033,647.41 456.671,650.777C456.774,651.323 457.595,651.608 457.595,652.164C457.595,653.236 456.079,654.352 456.671,655.246C457.828,656.995 464.454,658.971 466.379,658.174C468.903,657.129 466.567,652.472 469.924,652.472L475.009,652.472C491.134,652.472 505.098,663.51 513.226,676.666C516.464,681.907 516.564,686.767 520.315,691.768L520.007,691.46C519.099,690.552 521.736,693.397 522.318,694.542C523.077,696.037 522.549,698.733 524.63,699.627C527.622,700.913 527.316,697.699 530.177,698.394C536.351,699.895 537.731,702.546 542.351,706.408C550.649,713.343 551.856,712.318 556.837,722.28C558.166,724.939 559.006,727.845 559.611,730.756C559.842,731.867 558.581,733.27 559.303,734.146C560.358,735.427 562.409,735.321 563.926,735.995C567.683,737.665 571.87,739.462 574.713,742.622C580.863,749.457 586.706,756.576 592.28,763.888C592.729,764.476 594.556,770.797 595.825,770.976C597.509,771.214 598.603,768.321 600.294,768.511C603.898,768.915 605.327,774.669 608.923,775.137C610.004,775.278 610.156,772.98 611.235,772.826C614.104,772.414 619.68,775.058 621.714,776.832C629.731,783.828 628.686,784.525 633.236,793.866C633.759,794.939 634.95,798.045 636.97,797.636C641.332,796.752 641.045,793.571 644.213,791.318C651.311,786.267 661.266,787.277 668.252,791.934C675.123,795.37 674.803,797.419 682.556,799.094C687.934,800.256 684.828,791.213 690.289,792.705C701.384,795.735 709.771,805.278 713.25,815.974C713.812,817.701 713.226,819.735 714.021,821.368C716.103,825.647 719.598,829.131 721.726,833.388L721.726,833.233C720.985,832.678 722.831,834.728 723.267,835.545C723.657,836.277 724.053,837.038 724.191,837.857C724.571,840.094 724.876,842.369 724.808,844.637C724.772,845.808 723.202,847.074 723.883,848.027C724.68,849.143 726.562,848.61 727.89,848.952C728.362,849.073 729.263,849.901 729.277,849.414C729.29,848.944 726.395,844.812 727.273,844.021C729.316,842.18 734.106,843.978 735.287,845.87C735.737,846.592 734.105,847.623 734.586,848.325C735.105,849.081 736.438,849.122 737.296,848.799C742.287,846.924 740.814,844.586 745.939,842.853C751.169,841.085 753.785,848.432 756.543,850.729C758.861,852.66 761.854,853.624 764.303,855.386C766.145,856.713 762.131,859.497 760.405,860.972C757.315,863.612 754.263,866.299 751.114,868.871C750.198,869.619 747.483,870.404 748.817,872.555C749.492,873.643 753.936,875.858 755.336,875.052C758.616,873.164 759.738,866.445 764.756,867.279C767.444,867.726 769.845,869.565 772.568,869.695C775.317,869.827 777.988,865.651 781.055,866.674L781.209,866.674C780.335,867.111 783.198,867.099 784.137,866.828C786.804,866.057 790.995,861.838 793.967,865.013C800.903,872.421 803.918,877.101 807.635,886.553C810.034,892.653 805.784,898.789 804.941,904.583C804.724,906.071 806.242,907.713 805.557,909.051C804.58,910.96 801.828,911.378 800.571,913.115C799.737,914.269 802.881,915.055 804.297,915.209C805.956,915.391 807.669,915.031 809.302,915.38C812.98,916.166 811.012,921.516 814.803,922.15C817.842,922.659 821.035,921.233 824.049,922.458C825.831,923.183 826.245,926.094 827.44,927.236C830.339,930.008 833.858,932.095 836.686,934.941C840.29,938.568 838.34,940.534 843.504,942.81C849.787,945.578 853.204,936.831 856.719,934.17C859.307,932.211 863.585,932.535 866.427,933.245C867.689,933.876 867.604,935.953 868.739,936.79C870.079,937.778 872.241,937.292 873.457,938.43C875.755,940.58 876.093,946.16 877.523,948.656C878.925,951.103 881.497,952.809 882.669,955.375C883.817,957.888 880.429,959.118 880.605,961.292C881.367,970.737 884.765,970.167 884.765,979.784C885.423,982.414 887.446,984.515 888.464,987.027C890.643,992.403 888.965,993.222 892.811,997.934C896.599,1002.58 898.835,1001.1 901.408,1006.91C908.127,1022.07 905.233,1039.1 910.192,1054.68C913.02,1063.56 923.633,1069.61 921.365,1080.07C920.244,1085.24 917.138,1086.76 912.482,1087.95C903.582,1090.21 890.324,1089.48 885.169,1099.39C880.707,1107.96 893.97,1108.97 896.564,1114.65C899.95,1122.07 889.486,1124.25 888.001,1130.19L887.693,1129.88C887.096,1129.58 887.088,1131.08 886.923,1131.73C886.393,1133.8 886.582,1136.1 885.615,1138.01C884.735,1139.74 883.387,1141.48 881.593,1142.24C878.204,1143.65 874.204,1142.97 870.753,1144.23C868.081,1145.21 868.237,1148.56 868.323,1150.59C868.627,1157.8 869.249,1170.5 871.852,1177.4C875.432,1186.9 888.431,1182.71 895.09,1182.58C900.592,1182.47 902.863,1184.45 908.343,1182.43C915.219,1179.9 913.017,1170.63 914.742,1165.58C916.134,1161.51 918.371,1157.76 920.609,1154.08C924.793,1147.2 928.678,1142.91 935.391,1138.42C941.354,1134.44 950.056,1132.55 953.508,1125.39C957.178,1117.79 953.615,1109.14 952.678,1101.51C951.693,1093.48 951.551,1090.48 955.144,1083.06C957.239,1078.74 959.358,1078.72 963.203,1076.56C972.908,1071.11 977.192,1067.35 988.322,1065C990.938,1064.45 990.829,1067.9 991.898,1068.8C993.291,1069.98 994.689,1068.6 996.019,1068.58C999.606,1068.55 1002.59,1070.38 1005.72,1067.19C1007.38,1065.49 1006.21,1061.13 1007.12,1059.3C1008,1057.54 1012.26,1056.32 1010.98,1054.83C1010.02,1053.73 1008.03,1054.28 1006.82,1053.46C1004.34,1051.77 1005.89,1050.24 1004.66,1048.05C1004.07,1047 1002.71,1046.51 1002.17,1045.44C999.817,1040.82 1004.88,1036.72 1005.42,1032.55C1005.8,1029.65 1002.21,1027.33 1002.96,1024.32C1003.9,1022.43 1002.78,1020.05 1003.27,1018C1003.68,1016.28 1007.35,1013.35 1005.58,1010.91C1004.76,1009.78 1002.7,1010.5 1001.57,1009.68C998.571,1007.49 996.679,1002.54 993.253,1000.74C990.804,999.456 987.751,999.745 985.24,998.585C979.314,995.847 980.239,986.069 972.603,985.794C970.004,985.701 967.504,986.908 964.909,987.09C961.848,987.305 958.733,987.468 955.702,986.98C949.93,986.051 950.925,977.814 949.642,974.237C949.052,972.59 945.944,971.563 945.944,969.459C943.737,967.253 945.851,964.348 947.022,962.679C950.676,957.474 953.775,951.766 958.272,947.269L959.042,945.42C949.909,940.853 962.203,928.184 964.128,924.308C965.898,920.742 966.419,916.65 968.134,913.058C969.25,910.723 972.603,910.213 972.603,907.048C973.546,904.692 975.627,902.97 977.072,900.884C983.081,892.21 993.057,873.24 1006.37,881.297C1008.87,882.812 1011.25,884.575 1013.34,886.619C1016.59,889.786 1008,891.039 1011.44,893.641C1017.37,898.131 1019.1,897.393 1025.61,900.73C1031.89,903.945 1034.65,907.445 1042.1,907.973C1045.01,908.179 1047.82,906.586 1050.73,906.586L1056.13,906.586C1061.56,906.586 1071.29,905.44 1073.69,912.596C1074.52,915.048 1073.47,917.981 1074.62,920.301C1076.44,923.995 1083.44,924.878 1082.82,930.117C1082.34,934.096 1078.68,938.856 1081.4,942.954C1085.74,949.505 1091,955.987 1098.35,959.443C1101.24,960.801 1104.77,960.157 1107.75,961.292C1110.57,962.363 1110.04,965.917 1113.61,966.069C1122.1,966.431 1117.36,954.378 1118.26,950.882C1119.84,944.759 1123.19,939.235 1125.63,933.4C1126.42,931.507 1126.99,929.515 1127.94,927.698C1128.19,927.214 1129.36,927.13 1129.17,926.619C1128.35,924.433 1126.31,922.878 1125.32,920.763C1122.16,914.043 1124.32,912.93 1119.59,906.857C1116.41,902.766 1112.35,899.429 1108.98,895.491C1106.6,892.703 1105.03,889.22 1102.36,886.707C1101.39,885.793 1099.69,886.242 1098.51,885.628C1092.43,882.477 1093.3,881.62 1088.49,876.998C1087.64,876.187 1086.04,875.967 1085.71,874.841C1085.31,873.427 1087,871.953 1086.64,870.526C1086.64,861.326 1073.84,862.987 1068.89,860.557C1062.91,857.622 1058.07,852.708 1052.2,849.553C1045.77,846.096 1042.66,848.773 1036.56,844.329C1027.03,837.389 1018.35,829.359 1009.28,821.83C1005.27,818.501 1001.07,813.508 995.256,813.508C987.416,811.548 988.077,809.014 980.463,806.574C978.394,805.911 976.042,806.518 973.99,805.803C971.385,804.896 969.294,802.858 966.747,801.797C960.91,799.363 960.325,801.312 954.728,798.098C952.215,796.656 950.37,794.182 947.793,792.859C946.455,792.172 944.72,792.801 943.324,792.242C941.565,791.539 940.264,789.962 938.547,789.16C937.315,788.585 935.397,789.821 934.694,787.773C931.486,784.566 930.173,786.739 926.527,784.691C913.57,777.416 899.925,769.236 891.618,756.41C888.657,751.839 894.409,747.228 897.317,745.032C907.515,737.332 909.408,738.275 918.855,729.531C922.609,726.056 917.291,721.344 916.51,718.274C916.372,717.728 919.365,717.323 918.514,716.116C916.992,713.959 914.033,714.099 912.041,712.88C908.067,710.447 907.725,707.655 902.333,708.103C894.779,708.731 884.262,713.255 876.598,713.342C873.233,713.381 870.1,711.114 866.735,711.185C862.585,711.272 858.712,713.805 854.561,713.805C848.022,715.44 847.918,712.633 841.617,712.264C834.336,711.836 825.924,714.58 819.118,710.414C813.342,706.879 812.104,703.382 806.019,700.244C799.859,697.066 791.723,696.664 786.911,690.998C784.548,688.216 789.626,684.381 785.832,682.214C780.227,679.012 773.864,677.128 768.573,673.43C764.299,670.443 759.777,660.888 755.936,657.557C753.505,655.449 749.996,654.917 747.461,652.934C745.899,651.713 745.222,649.649 743.916,648.157C739.823,643.479 735.528,638.981 731.28,634.442C729.442,632.479 726.138,629.899 725.424,627.045C724.31,625.931 724.543,624.007 723.883,622.576C718.112,610.069 716.627,610.659 713.25,597.15C713.093,595.507 713.468,596.733 712.942,594.53C712.942,589.348 709.292,583.017 707.702,578.349C700.559,557.378 701.747,557.15 693.833,536.434C691.845,531.229 686.745,523.267 686.745,517.325L686.745,512.394C686.745,509.333 683.464,510.233 682.122,509.003C679.891,506.96 678.616,503.974 676.266,502.069C675.157,501.17 673.99,504.333 672.567,504.226C669.326,503.982 663.478,500.935 661.01,498.987C648.403,489.035 635.925,478.912 623.717,468.475C622.786,467.678 622.783,465.992 621.714,465.393C614.23,461.198 604.842,460.432 598.29,454.451C582.762,440.277 569.77,422.097 565.851,401.054C564.509,393.852 567.648,393.437 567.072,386.299C566.648,381.036 563.792,381.436 563.001,376.322C561.415,366.067 563.466,364.868 564.234,354.748C564.309,353.762 563.351,352.714 563.771,351.82C564.016,351.3 565.005,352.469 565.467,352.128C566.279,351.528 565.274,348.897 566.237,349.2C567.401,349.566 568.167,350.698 569.173,351.388C569.556,351.65 570.542,352.493 570.398,352.051C569.976,350.756 568.307,349.932 568.256,348.571C568.231,347.888 569.898,347.511 570.251,348.096C571.623,350.368 570.121,357.644 575.147,357.141C576.841,356.972 575.767,354.92 576.408,354.285C576.859,353.838 577.944,354.376 578.257,353.823C578.896,352.693 576.342,351.777 576.254,351.203C575.858,348.629 575.724,345.958 576.156,343.389C576.513,341.274 578.996,342.86 579.183,343.571C579.828,346.028 579.129,348.768 580.025,351.144C580.579,352.614 583.33,350.035 584.001,348.614C584.711,347.109 585.295,345.47 585.346,343.806C585.356,343.471 582.649,343.267 583.959,341.957C583.411,341.683 584.164,340.661 584.607,340.239C585.228,339.648 593.343,335.824 588.975,333.422C586.692,332.167 583.779,332.205 581.647,330.708C580.77,330.091 581.454,328.41 580.723,327.626C580.392,327.271 579.828,328.743 579.49,328.396C578.797,327.685 579.657,325.7 578.679,325.53C577.274,325.286 576.244,327.037 574.936,327.606C574.034,327.999 571.795,329.334 572.093,328.396C572.676,326.562 575.401,325.992 576.028,324.173C576.29,323.414 574.122,324.564 573.634,323.927C573.009,323.111 573.994,321.736 573.48,320.845C572.571,319.273 570.431,318.621 569.627,316.993C569.152,316.029 570.221,314.842 569.998,313.791C569.833,313.016 568.535,312.699 568.549,311.907C568.57,310.619 570.367,309.621 570.09,308.363C569.403,305.247 562.674,301.138 566.545,297.268C567.555,293.228 568.186,289.061 569.688,285.177C573.279,275.89 583.868,272.31 591.664,267.988C603.511,261.421 615.131,254.438 627.107,248.109C631.061,246.02 635.038,251.409 638.734,248.09C640.817,246.218 642.948,244.223 644.228,241.732C644.655,240.9 644.307,238.99 643.374,239.058C641.941,239.163 641.364,241.122 640.244,242.023C639.577,242.558 638.355,244.139 638.044,243.343C636.546,239.506 637.17,231.068 642.94,230.56C647.591,230.15 647.993,232.544 652.226,233.47C655.336,234.15 658.641,233.732 661.712,234.571C666.24,235.807 660.26,243.925 666.095,243.178C667.965,242.939 679.732,239.565 680.889,237.476C681.373,236.601 673.534,229.187 679.716,229.47C686.977,229.803 690.968,236.804 695.22,241.483C696.393,242.773 698.048,243.671 698.919,245.181C699.238,245.736 696.972,247.498 697.994,248.263C699.505,249.396 702.126,248.891 703.234,250.421C703.832,251.247 702.213,252.462 701.23,252.732C699.914,253.094 698.551,252.147 697.188,252.08C696.128,252.028 693.748,252.6 694.332,253.486C698.031,259.093 707.706,260.64 712.301,255.261C716.144,250.763 708.669,246.185 706.932,243.486C704.751,240.1 706.091,237.069 702.463,234.394C694.44,228.479 692.417,231.492 684.455,225.452C678.114,220.641 686.597,212.91 688.732,209.272C689.293,208.315 690.038,204.985 688.836,203.993C683.667,199.729 674.69,206.557 671.63,198.64C670.871,196.675 672.687,193.045 674.346,192.08C680.968,188.231 690.62,187.82 691.701,178.415C692.258,173.566 683.402,176.444 682.122,175.99C680.444,175.394 679.93,172.933 678.269,172.291C677.299,171.916 676.371,173.517 675.341,173.37C673.658,173.129 672.413,171.352 670.718,171.212C670.109,171.162 670.51,172.488 670.096,172.938C667.383,175.882 667.449,169.142 667.328,168.747C666.894,167.333 664.54,164.501 665.016,162.737C665.839,159.691 668.871,160.29 670.102,157.651C670.579,156.627 669.381,155.132 670.102,154.261C670.92,153.272 672.655,153.763 673.8,153.183C676.535,151.797 679.321,150.388 681.659,148.405C683.641,146.724 682.539,143.214 686.135,142.828C688.963,142.524 691.202,145.866 694.041,146.038C698.508,146.31 694.009,136.793 693.987,136.54C693.882,135.323 695.625,133.987 694.912,132.995C693.44,130.947 685.701,129.06 683.508,129.143C682.953,129.164 683.124,130.66 682.584,130.53C679.745,129.844 677.432,127.569 674.571,126.985C666.992,125.44 665.366,128.557 657.928,128.526C656.707,128.521 655.756,127.222 654.537,127.139C653.369,127.06 652.285,128.34 651.147,128.064C647.843,127.263 643.515,122.545 639.898,122.362C633.603,122.043 627.341,123.636 621.038,123.735C615.42,123.824 613.542,117.025 608.118,116.591C598.367,115.813 598.218,118.166 588.493,116.172C580.535,114.541 577.391,105.698 572.401,100.634C570.127,98.326 564.944,98.059 564.705,93.881C564.426,89.013 566.339,89.162 565.004,84.299C563.95,80.459 558.913,86.065 558.224,86.302C557.128,86.68 558.104,83.913 557.562,82.889C555.737,79.44 551.948,76.73 550.838,72.804C548.963,66.168 558.342,64.177 561.874,62.022C564.555,60.387 560.976,56.949 559.137,57.145C556.213,57.455 553.572,59.051 550.827,60.105C539.86,64.315 529.054,68.952 518.002,72.933C513.74,74.469 510.955,69.303 507.744,68.002C502.798,65.997 501.968,76.239 497.37,73.253C494.558,71.427 496.417,69.053 493.88,67.032C491.575,65.194 486.631,73.652 486.017,73.931C484.997,74.394 480.189,71.255 479.478,71.2C475.588,70.901 475.25,73.342 471.773,74.128C469.613,74.616 467.147,73.643 465.146,74.591C463.857,75.202 464.141,77.446 462.989,78.289C461.842,79.128 459.987,78.392 458.828,79.214C457.043,80.479 458.213,83.401 457.749,84.915C457.386,86.103 456.235,86.955 455.9,88.152C455.498,89.589 456.219,91.266 455.592,92.621C454.859,94.204 452.893,94.947 452.048,96.473C451.519,97.428 453.05,100.936 450.353,101.096C443.624,101.494 437.168,98.181 430.473,97.398C430.368,97.385 425.593,98.13 425.353,97.16C424.979,95.651 429.441,90.619 426.384,89.357C419.509,86.518 419.508,90.189 412.069,90.383C410.312,90.429 404.326,83.476 401.796,87.114C401.05,88.187 401.316,89.692 400.886,90.925C398.18,98.683 394.749,106.193 392.397,114.066C392.012,115.355 394.863,115.961 395.241,116.26C398.748,119.03 405.618,123.757 403.172,129.543C401.187,134.237 394.796,128.021 393.027,127.602C388.669,126.568 388.378,130.206 384.008,127.678C380.932,125.899 382.441,123.154 381.934,120.62C381.738,119.641 381.694,117.963 380.699,117.893C379.539,117.812 379.207,119.725 378.233,120.359C373.286,123.58 366.084,125.432 363.576,131.555C362.72,133.646 361.953,135.875 361.944,138.135C361.912,145.814 371.922,141.471 374.716,146.758C378.247,153.436 367.015,154.177 368.167,160.533C368.793,163.988 375.172,171.025 368.909,173.787C367.504,174.406 363.781,173.342 363.168,171.74C360.631,165.118 362.79,153.449 354.292,150.217C351.609,149.196 345.429,154.401 345.08,154.524C341.937,155.629 338.388,155.179 335.239,156.265C332.763,157.117 334.98,159.396 334.564,160.571C332.777,165.621 325.637,164.537 322.118,162.883C316.634,160.305 309.455,155.042 309.966,147.943C310.238,144.159 314.129,138.776 310.662,135.09C308.688,132.991 306.741,140.838 303.98,138.982C302.652,138.088 297.895,130.471 294.849,134.25C287.863,142.917 293.24,151.248 292.187,161.289C290.587,176.541 273.591,181.919 269.635,195.979C269.19,197.561 270.431,199.174 270.67,200.8C271.728,207.988 272.394,211.984 270.541,219.152C270.146,220.677 267.127,226.552 264.16,224.928C259.879,222.586 262.777,216.579 261.745,213.208C260.817,210.173 259.195,207.326 257.263,204.807C254.717,201.486 252.374,203.695 250.066,200.024C246.724,194.707 259.424,195.383 254.872,190.39C252.785,188.101 251.282,190.223 248.942,189.242C247.624,188.69 246.925,187.014 245.551,186.623C242.185,185.663 241.46,188.915 238.035,187.33C233.832,185.386 229.665,180.504 227.676,176.452C227.378,175.845 228.457,174.931 227.984,174.449C225.55,171.963 221.982,170.765 219.613,168.218C214.107,162.301 219.387,151.345 220.183,145.373C220.824,140.565 214.739,140.223 211.67,141.13C204.336,143.298 206.206,152.56 201.898,157.276C200.268,159.061 198.479,160.904 196.239,161.812C193.428,162.952 185.084,160.372 185.041,166.263C185,171.728 197.737,178.285 192.085,183.663C189.837,185.801 185.778,185.053 183.426,187.076C180.053,189.977 183.088,195.721 178.607,197.888C175.031,199.618 170.094,197.108 167.765,201.264C166.214,204.032 167.661,207.834 166.207,210.654C165.785,211.473 164.401,211.506 163.511,211.267C155.702,209.167 148.071,206.442 140.454,203.728C139.121,203.253 138.199,201.035 136.293,202.495C135.749,202.912 136.344,204.044 135.831,204.498C134.866,205.352 133.372,205.345 132.287,206.039C129.972,207.522 125.28,212.262 122.424,212.974C119.426,213.722 116.164,212.649 113.163,213.385C110.603,214.013 107.806,218.573 104.907,218.672C102.872,218.742 101.202,216.407 99.172,216.569C98.045,216.659 98.281,219.244 97.151,219.292C96.148,219.335 96.101,217.581 95.578,216.724C94.097,214.294 93.317,211.265 91.141,209.43C90.44,208.838 90.059,210.941 89.747,211.805C88.568,215.067 89.599,217.554 85.569,219.206C81.084,221.046 75.95,221.068 71.571,223.145C70.734,223.542 71.476,224.994 71.416,225.919C71.252,228.482 70.54,231.064 70.9,233.607C71.951,241.035 73.881,239.886 78.967,244.257C80.15,245.273 79.847,246.649 81.895,246.568C84.06,246.483 85.754,244.317 88.059,246.106C89.164,246.962 86.817,248.715 86.827,250.113C86.839,251.946 87.85,253.673 87.905,255.506C87.981,258.04 85.838,257.873 87.135,260.591C87.382,261.11 88.527,260.807 88.676,261.362C88.959,262.414 87.555,263.73 88.214,264.598C89.028,265.672 91.039,264.958 92.066,265.831C94.236,267.675 95.342,270.553 97.46,272.457C101.305,275.916 103.608,273.799 106.492,278.715C109.039,283.057 98.459,286.572 97.299,287.751C93.001,292.114 105.909,296.719 98.703,300.406C93.621,303.006 93.012,299.277 87.751,301.582C81.963,304.12 78.164,310.219 72.296,312.565C68.678,314.01 65.182,310.461 61.708,310.983C58.068,311.529 59.09,315.452 55.082,315.452C54.368,315.63 54.393,316.909 54.619,317.609C55.56,320.517 56.645,323.48 58.472,325.931C60.493,328.641 64.39,326.878 65.561,330.4C67.36,335.812 67.038,344.055 72.649,347.659C78.031,351.116 85.656,346.774 90.063,352.436C90.765,353.338 88.498,354.819 88.522,355.364C88.625,357.769 88.864,360.283 89.909,362.453C91.037,364.795 93.919,366.062 94.845,368.492C95.149,369.29 93.615,369.798 92.792,370.023C90.891,370.54 86.085,369.585 84.377,371.339C83.222,372.526 85.608,376.14 85.313,377.188C84.647,379.557 83.401,381.789 81.879,383.721C80.09,385.991 76.544,385.542 75.731,388.958C74.958,392.207 77.452,395.785 79.43,397.896C80.576,399.12 83.512,399.766 83.59,402.057C83.631,403.248 80.503,401.419 80.046,402.519C79.026,404.976 78.334,407.738 78.659,410.378C78.797,411.501 80.629,411.61 81.279,412.536C82.718,414.586 83.371,417.121 84.823,419.162C85.563,420.202 87.132,420.512 87.751,421.628C88.923,423.74 86.776,426.095 89.138,427.946C90.78,429.233 93.266,427.043 94.84,427.484C97.728,428.293 99.383,431.493 102.391,432.107C103.298,432.292 104.246,430.66 105.011,431.182C107.862,433.128 109.174,436.899 112.099,438.733C113.063,439.337 114.201,437.573 115.335,437.654C115.92,437.696 115.836,438.95 116.414,439.041C117.602,439.229 119.122,436.818 119.804,437.808C120.564,438.912 118.773,441.795 120.113,441.815C121.354,441.834 122.265,440.371 123.503,440.274C125.67,440.105 129.212,443.037 131.054,440.274" style="fill:none;stroke:black;stroke-width:3px;"/>
    </g>
    <path id="path1968" d="M831.47,1255.85C830.816,1254.27 825.7,1254.32 824.714,1253.88C823.961,1253.56 823.706,1252.51 822.971,1252.14C822.18,1251.75 820.816,1252.46 820.356,1251.71C818.572,1248.78 820.236,1244.26 819.484,1241.25C819.484,1237.4 819.201,1232.72 820.792,1229.04C823.279,1223.29 825.755,1224.19 827.765,1218.14C828.776,1215.1 828.553,1211.76 829.458,1208.68C829.685,1207.91 831.036,1207.7 831.075,1206.9C831.139,1205.56 829.66,1204.45 829.727,1203.11C829.869,1200.26 832.659,1199.3 834.085,1197.44C837.009,1193.64 839.743,1189.69 842.367,1185.67C846.865,1178.79 851.057,1171.71 855.443,1164.75C857.377,1161.68 858.762,1158.16 861.327,1155.6L863.071,1150.8C864.256,1149.62 863.606,1147.36 864.596,1146.01C865.377,1144.94 867.027,1144.88 868.032,1144.02C868.6,1143.53 869.787,1142.51 869.173,1142.09C868.098,1141.34 866.444,1142.62 865.25,1142.09C863.591,1141.35 862.168,1136.49 859.366,1137.94C848.282,1143.68 849.127,1145.13 837.354,1149.06C834.143,1150.13 834.246,1144.62 833.65,1143.39C833.441,1142.97 831.401,1140.97 830.468,1142.16C828.94,1144.12 832.429,1145.96 832.674,1147.56C833.318,1151.75 827.654,1156.77 824.044,1158.38C822.266,1159.17 810.525,1157.32 808.805,1155.6L809.023,1156.03C807.987,1155.52 807.465,1154.27 806.475,1153.67C800.593,1150.09 797.757,1154.03 791.589,1155.38C788.827,1155.98 787.837,1153.32 785.213,1155.81C781.88,1158.98 783.326,1162.12 778.949,1164.53C777.338,1165.42 775.197,1164.69 773.5,1165.4C771.12,1166.4 769.473,1168.95 766.962,1169.55C764.267,1170.18 761.44,1168.65 758.681,1168.89C753.609,1169.33 749.883,1172.45 744.733,1172.6C739.686,1172.74 739.261,1169.68 734.272,1169.55C730.716,1169.45 729.852,1172.85 725.991,1171.07C724.588,1170.42 724.353,1168.21 722.94,1167.58C722.136,1167.23 721.328,1168.28 720.543,1168.67C716.387,1170.75 712.485,1173.4 708.12,1174.99C701.529,1177.4 697.324,1176.46 690.904,1174.34C687.328,1173.16 681.331,1170.31 679.353,1166.71C678.127,1164.48 680.626,1158.33 678.214,1159.15C674.917,1160.28 668.039,1166.04 664.97,1160.17C663.282,1156.95 664.109,1147.74 658.214,1147.32C656.649,1147.2 655.849,1150.04 654.945,1150.59C653.191,1151.65 651.308,1152.69 649.279,1152.98C644.094,1153.74 644.248,1150.71 639.254,1151.89C636.506,1152.55 637.784,1160.88 637.51,1161.92C635.893,1168.04 627.742,1169.67 622.691,1170.2C621.051,1170.37 619.529,1168.46 618.55,1167.58C612.929,1162.56 611.888,1163.21 609.833,1155.6C609.602,1154.74 610.723,1153.74 610.269,1152.98C609.96,1152.47 609.086,1153.63 608.525,1153.42C607.147,1152.9 605.384,1149.66 604.82,1151.02C603.761,1153.58 605.571,1157.54 605.609,1159.96C605.646,1162.34 600.881,1160.28 600.284,1160.8C599.364,1161.59 600.178,1163.41 599.372,1164.32C598.562,1165.22 592.828,1167.36 591.526,1166.06C591.301,1165.16 590.042,1167.18 589.347,1167.8C588.079,1168.93 586.596,1169.89 585.642,1171.29C584.121,1173.53 586.2,1174.46 584.867,1176.76C582.978,1180.01 578.858,1182.18 578.232,1185.89C577.783,1188.56 581.145,1190.48 582.128,1193C583.25,1195.87 576.715,1195.11 578.232,1198.09C580.284,1202.12 581.63,1206.62 584.474,1210.13C587.39,1213.73 589.454,1210.9 592.829,1213.23C597.751,1216.63 596.715,1219.33 600.462,1223.59C602.92,1226.39 607.735,1221.66 609.615,1221.19C614.264,1220.06 623.054,1219.04 627.099,1223.23C628.351,1224.53 629.807,1229.95 632.062,1230.57C633.659,1231.01 635.201,1229.2 636.856,1229.26C637.684,1229.29 638.017,1230.57 638.818,1230.78C641.369,1231.46 644.212,1230.89 646.663,1231.87C647.453,1232.19 647.004,1233.61 647.535,1234.27C648.787,1235.84 650.729,1236.78 651.894,1238.41C652.953,1239.89 652.845,1242.08 654.073,1243.42C654.612,1244.02 655.735,1243.11 656.47,1243.42C658.718,1244.38 660.868,1245.62 662.79,1247.13C665,1248.86 666.972,1253.15 669.764,1254.32C671.256,1254.94 678.948,1254.46 680.443,1255.19C686.849,1258.32 685.718,1261.55 690.904,1265.87C697.193,1271.11 698.678,1267.42 705.941,1271.32C707.468,1272.14 707.527,1274.48 708.774,1275.68C712.221,1279 718.056,1275.36 721.632,1275.46C733.663,1275.82 735.04,1277.49 745.387,1283.09C747.696,1284.34 751.315,1286.44 752.579,1288.97C756.109,1292.5 754.835,1293.71 757.591,1297.69C758.557,1299.08 760.239,1299.92 761.078,1301.39C763.04,1304.84 761.849,1308.35 765.219,1311.2C768.803,1314.23 771.921,1312.39 775.897,1313.82C778.482,1314.75 779.757,1318.23 782.435,1318.83C784.149,1319.22 785.956,1317.77 787.666,1318.17C788.969,1318.48 789.387,1320.63 790.717,1320.79C794.482,1321.24 797.931,1316.61 801.614,1317.52C804.139,1318.14 805.497,1321.19 807.934,1322.1C809.557,1322.7 813.03,1319.05 814.472,1321.01C815.303,1322.14 816.175,1327.55 819.048,1326.67C821.41,1325.96 824.313,1324.04 824.061,1321.01C823.992,1320.18 822.346,1320.27 822.099,1319.48C821.886,1318.8 823.093,1318.23 822.971,1317.52C822.3,1313.64 818.324,1309.27 820.792,1305.1C822.873,1301.58 825.17,1298.16 827.796,1295.03C830.422,1291.89 833.123,1288.69 836.483,1286.36C837.162,1285.88 841.177,1288.4 841.544,1286.89C842.502,1282.94 834.782,1282.56 835.619,1281.17C836.027,1280.49 839.459,1279.05 838.88,1277.2C837.731,1273.55 836.095,1275.43 833.65,1273.72C830.769,1271.7 828.947,1268.77 827.983,1265.44C827.822,1264.88 827.425,1259.85 829.376,1259.82C830.996,1259.79 830.936,1265.35 831.843,1264C833.814,1261.08 832.9,1257.71 830.599,1255.41" style="fill:none;stroke:black;stroke-width:3px;"/>
    <path id="path1911" d="M199.451,828.701C197.941,827.209 195.232,827.584 193.132,827.901C192.554,827.989 192.904,829.115 193.128,829.655C194.137,832.091 198.709,835.406 197.514,838.514C195.374,844.076 191.122,846.972 189.603,852.876C188.416,857.49 195.632,856.847 197.186,859.295C200.6,864.672 186.371,867.002 190.535,873.584C191.187,874.616 192.805,872.465 193.539,871.489C194.525,870.178 195.001,868.356 196.383,867.472C196.919,867.128 197.808,868.144 197.775,868.78C197.71,870.068 196.526,871.055 196.138,872.285C195.919,872.975 195.267,874.561 195.982,874.451C196.014,874.446 201.78,870.548 203.455,870.703C208.734,871.191 206.782,878.822 208.389,881.889C208.998,883.052 210.624,883.367 211.405,884.422C214.811,889.028 211.995,894.758 212.327,899.769C212.497,902.338 214.589,901.087 215.795,902.139C216.41,902.674 216.25,903.82 216.889,904.326C218.652,905.724 221.572,904.584 221.796,908.024C221.839,908.686 220.337,908.519 220.163,909.159C220.043,909.601 221.295,909.525 221.264,909.982C220.773,917.072 218.609,916.583 218.639,923.732C218.653,927.184 224.335,926.834 223.617,930.366C222.321,936.735 210.572,930.855 210.99,937.305C211.095,938.936 215.084,938.659 214.885,940.282C214.673,942.016 212.653,943.141 212.326,944.857C212.179,945.632 213.502,946.049 213.639,946.826C214.166,949.816 212.615,953.645 214.311,956.555C218.302,963.401 222.853,949.086 226.482,953.795C227.51,955.128 227.615,956.99 227.833,958.659C228.063,960.424 227.902,962.221 227.813,963.998C227.711,966.046 227.794,968.145 227.262,970.125C226.197,974.096 224.893,974.695 221.317,972.596C220.308,972.003 219.852,970.758 218.983,969.974C218.679,969.7 217.828,969.069 217.861,969.477C218.385,975.954 219.879,982.324 220.505,988.792C221.006,993.957 214.291,995.536 213.65,1000.45C213.26,1003.43 215.466,1006.37 215.068,1009.35C214.904,1010.57 213.398,1011.18 212.758,1012.24C209.698,1017.26 214.963,1019.03 217.05,1023.57C219.931,1029.83 208.173,1026.08 209.858,1031.96C211.715,1038.43 220.556,1042.87 224.774,1046.89C228.567,1050.5 227.193,1055.23 229.326,1059.7C230.153,1061.43 233.873,1062.59 234.545,1064.51C235.128,1066.18 231.985,1067.94 232.795,1069.51C233.323,1070.54 235.181,1070.16 235.874,1071.08C236.402,1071.78 235.47,1072.99 235.96,1073.72C236.231,1074.12 236.681,1073.03 236.878,1072.58C237.313,1071.6 237.133,1070.33 237.826,1069.51C238.379,1068.86 239.516,1069.1 240.232,1068.64C241.574,1067.77 242.341,1065.82 243.92,1065.58C246.356,1065.19 247.865,1069.64 248.951,1070.61C250.031,1071.57 249.985,1069.12 250.572,1069.41C252.233,1070.24 252.581,1073.38 255.404,1072.17C258.617,1070.8 263.775,1065.33 265.92,1062.76C266.703,1061.83 266.875,1060.32 267.929,1059.7C268.446,1059.4 269.135,1061.25 269.409,1060.72C270.486,1058.63 270.094,1056.02 270.951,1053.83C271.233,1053.1 272.636,1053.07 272.701,1052.3C273.211,1046.29 269.665,1039.31 273.872,1033.81C276.661,1030.17 280.803,1036.35 282.482,1037.26C285.1,1038.68 284.775,1030.3 288.045,1031C293.71,1032.22 293.447,1034.38 298.42,1036.83C299.271,1037.25 300.481,1036.68 301.232,1037.26C303.15,1038.74 303.859,1041.66 306.045,1042.7C307.508,1043.4 309.371,1041.11 310.826,1041.83C312.964,1042.87 313.329,1046.16 315.42,1047.3C316.21,1047.72 315.589,1045.44 316.045,1044.67C318.169,1041.06 320.023,1042.01 320.44,1037.37C320.777,1033.62 318.105,1031.9 320.201,1028.11C321.089,1026.5 325.529,1026.57 325.42,1023.76C325.328,1021.41 322.911,1019.55 322.826,1017.2C322.686,1013.3 327.015,1004.68 327.17,1000.86C327.241,999.093 325.302,997.619 325.42,995.857C325.479,994.969 327.349,995.178 327.607,994.326C328.987,989.78 326.542,987.437 326.732,982.982C327.086,974.732 327.441,966.43 328.915,958.305C330.111,951.713 336.762,944.933 335.495,937.658C333.966,928.876 323.433,923.464 324.764,913.92C326.509,901.397 339.222,895.547 343.344,884.221C345.605,878.011 337.83,872.82 335.014,869.014C332.633,865.795 338.98,865.428 337.794,862.21C336.572,858.897 335.015,855.702 333.271,852.632C332.826,851.849 328.357,847.839 328.92,846.357C329.76,844.147 333.121,843.551 333.92,841.326C334.366,840.086 328.474,838.806 328.389,838.67C327.318,836.956 328.287,834.374 327.086,832.749C326.193,831.542 322.264,834.364 321.732,834.357C320.944,834.347 320.544,833.16 319.764,833.045C317.969,832.78 316.08,833.725 314.326,833.264C313.044,832.926 315.813,830.44 317.139,830.451C317.927,830.458 318.583,832.353 319.107,831.764C320.863,829.788 320.913,826.738 322.389,824.545C323.22,823.31 325.218,823.076 325.857,821.732C326.508,820.367 322.821,819.659 321.514,820.42C320.809,820.83 321.233,822.548 320.42,822.607C320.4,822.609 319.789,818.455 319.764,818.451C319.756,818.45 314.997,821.737 314.982,821.732C314.246,821.47 315.697,820.316 315.826,819.545C315.983,818.61 315.559,817.611 315.826,816.701C316.748,813.565 320.492,809.51 318.021,805.951C315.68,802.578 312.543,807.713 311.188,808.762C310.651,809.178 309.716,810.046 309.295,809.514C308.751,808.826 310.231,807.641 309.732,806.92C308.726,805.462 306.528,805.214 305.389,803.857C303.709,801.858 305.653,800.614 303.092,799.519C300.183,798.274 296.398,801.411 293.607,799.92C290.9,798.473 293.693,791.461 290.634,791.204C288.715,791.043 287.537,793.495 286.014,794.673C284.803,795.609 282.953,796.106 282.431,797.544C281.109,801.189 285.093,802.988 281.487,804.052C278.911,804.812 277.908,807.116 275.295,807.982C273.666,808.522 271.816,808.15 270.202,808.732C263.861,811.018 265.865,813.117 261.139,818.67C260.029,819.974 258.023,820.349 257.014,821.732C256.689,822.177 255.669,827.294 254.608,828.381C252.873,830.158 252.569,828.14 250.118,828.454C249.666,828.511 250.728,829.148 250.913,829.564C251.4,830.656 251.642,831.58 250.095,831.985C246.854,832.833 243.218,832.4 240.232,833.92C235.796,836.178 232.527,840.249 228.396,843.028C224.193,845.857 219.391,842.086 215.389,841.326C210.049,840.312 209.747,842.466 204.482,840.482C199.23,838.504 202.797,832.005 199.451,828.701Z" style="fill:none;stroke:black;stroke-width:3px;"/>
</svg>
