<?xml version="1.0" encoding="UTF-8" standalone="no"?>
<!DOCTYPE svg PUBLIC "-//W3C//DTD SVG 1.1//EN" "http://www.w3.org/Graphics/SVG/1.1/DTD/svg11.dtd">
<svg width="100%" height="100%" viewBox="0 0 800 800" version="1.1" xmlns="http://www.w3.org/2000/svg" xmlns:xlink="http://www.w3.org/1999/xlink" xml:space="preserve" xmlns:serif="http://www.serif.com/" style="fill-rule:evenodd;clip-rule:evenodd;stroke-linecap:round;stroke-linejoin:round;stroke-miterlimit:1.5;">
    <g transform="matrix(1,0,0,1,-74.2616,-21.2031)">
        <path d="M281.486,110.574L150.507,483.783L280.915,484.565L310.188,364.562L417.786,360.219L447.213,481.902L555.508,483.265L415.88,98.857L281.486,110.574" style="fill:none;stroke:black;stroke-width:1px;"/>
    </g>
    <g transform="matrix(1,0,0,1,-110.01,45.9071)">
        <path d="M344.261,488.09L435.116,100.957L603.936,129.097L638.062,169.8L647.917,208.993L646.561,252.953L629.785,276.726L610.792,303.154L583.55,316.923L609.525,332.67L628.794,365.505L631.995,400.703L626.094,452.98L601.427,487.932L537.858,511.936L450.002,514.445L344.261,488.09Z" style="fill:none;stroke:black;stroke-width:1px;"/>
    </g>
    <path d="M242.633,273.327L322.374,267.389L285.165,163.381L265.665,161.155L242.633,273.327Z" style="fill:none;stroke:black;stroke-width:1px;"/>
    <path d="M386.142,290.879L433.53,297.812L448.881,292.352L459.982,274.828L459.747,246.494L451.827,228.84L434.914,221.268L392.334,210.984L386.142,290.879Z" style="fill:none;stroke:black;stroke-width:1px;"/>
    <path d="M333.941,493.238L388.036,498.507L427.131,496.504L440.305,482.598L451.904,458.27L450.783,434.707L441.122,405.382L417.264,389.278L387.255,386.332L353.287,381.386L333.941,493.238Z" style="fill:none;stroke:black;stroke-width:1px;"/>
    <path d="M652.789,649.693L594.474,645.618L523.81,636.382L501.336,601.042L485.852,534.693L490.093,498.843L510.584,467.708L552.671,433.206L608.691,432.295L662.312,435.578L685.887,438.662L704.666,364.355L648.074,354.213L586.679,354.213L526.671,355.33L493.473,365.08L456.566,387.946L434.833,413.901L409.312,456.922L392.184,516.748L392.856,576.662L405.552,645.27L440.653,687.951L485.904,704.868L557.657,718.151L623.273,725.404L660.762,725.165L652.789,649.693Z" style="fill:none;stroke:black;stroke-width:1px;"/>
</svg>
