<?xml version="1.0" encoding="UTF-8" standalone="no"?>
<!DOCTYPE svg PUBLIC "-//W3C//DTD SVG 1.1//EN" "http://www.w3.org/Graphics/SVG/1.1/DTD/svg11.dtd">
<svg width="100%" height="100%" viewBox="0 0 64 64" version="1.1" xmlns="http://www.w3.org/2000/svg" xmlns:xlink="http://www.w3.org/1999/xlink" xml:space="preserve" xmlns:serif="http://www.serif.com/" style="fill-rule:evenodd;clip-rule:evenodd;stroke-linejoin:round;stroke-miterlimit:2;">
    <path d="M50.245,25.553L51.453,25.72C53.008,25.936 54.597,26.007 56.16,25.865C64.292,25.123 60.888,19.771 60.888,13.971C60.888,8.17 64.293,2.818 56.16,2.076C54.597,1.934 53.008,2.005 51.453,2.221L45.916,2.99C42.002,3.532 38.502,5.353 36.193,7.749C35.715,6.435 28.286,6.434 27.808,7.749C25.5,5.353 21.999,3.532 18.086,2.99L12.549,2.221C10.994,2.005 9.405,1.934 7.841,2.076C-0.293,2.819 3.114,8.169 3.114,13.971C3.114,19.772 -0.294,25.122 7.841,25.865C9.405,26.007 10.994,25.936 12.549,25.72L13.756,25.553C12.105,32.051 8.766,39.892 2,46L15,46L15,62C15,62 26.145,46.166 28.212,21.047C28.717,21.483 35.283,21.483 35.789,21.047C37.856,46.166 49,62 49,62L49,46L62,46C55.234,39.892 51.895,32.051 50.245,25.553" style="fill-rule:nonzero;"/>
</svg>
