<?xml version="1.0" encoding="UTF-8" standalone="no"?>
<!DOCTYPE svg PUBLIC "-//W3C//DTD SVG 1.1//EN" "http://www.w3.org/Graphics/SVG/1.1/DTD/svg11.dtd">
<svg width="100%" height="100%" viewBox="0 0 19 29" version="1.1" xmlns="http://www.w3.org/2000/svg" xmlns:xlink="http://www.w3.org/1999/xlink" xml:space="preserve" xmlns:serif="http://www.serif.com/" style="fill-rule:evenodd;clip-rule:evenodd;stroke-linejoin:round;stroke-miterlimit:1.41421;">
    <g transform="matrix(1,0,0,1,-191.57,-158.01)">
        <path d="M191.86,178.94L192.01,178.79L192.94,178.79L193.09,178.94C193.092,179.946 193.179,180.949 193.35,181.94C193.554,182.416 193.904,182.816 194.35,183.08C195.053,183.544 195.831,183.883 196.65,184.08C197.599,184.335 198.577,184.463 199.56,184.46C200.806,184.483 202.043,184.23 203.18,183.72C204.217,183.263 205.092,182.503 205.69,181.54C206.287,180.57 206.596,179.449 206.58,178.31C206.597,177.557 206.45,176.81 206.15,176.12C205.892,175.527 205.481,175.013 204.96,174.63C204.424,174.247 203.825,173.963 203.19,173.79C202.53,173.61 201.55,173.41 200.24,173.19C198.93,172.97 197.98,172.8 197.24,172.64C196.501,172.464 195.784,172.21 195.1,171.88C194.429,171.561 193.825,171.116 193.32,170.57C192.815,170.006 192.427,169.346 192.18,168.63C191.888,167.84 191.742,167.003 191.75,166.16C191.682,163.95 192.585,161.818 194.22,160.33C196.06,158.743 198.443,157.926 200.87,158.05C202.084,158.064 203.294,158.201 204.48,158.46C205.71,158.71 206.903,159.117 208.03,159.67L208.16,159.9C207.827,161.546 207.657,163.221 207.65,164.9L207.48,165.05L206.48,165.05L206.32,164.92C206.32,163.39 206.26,162.44 206.21,162.04C206.16,161.64 205.58,161.16 204.48,160.58C203.372,159.992 202.134,159.69 200.88,159.7C199.845,159.699 198.822,159.92 197.88,160.35C196.964,160.756 196.213,161.461 195.75,162.35C195.281,163.224 195.031,164.198 195.02,165.19C195.007,165.882 195.157,166.567 195.46,167.19C195.719,167.735 196.111,168.206 196.6,168.56C197.086,168.91 197.631,169.167 198.21,169.32C198.83,169.48 199.96,169.68 201.59,169.93C203.269,170.103 204.919,170.489 206.5,171.08C207.517,171.524 208.373,172.272 208.95,173.22C209.593,174.286 209.916,175.515 209.88,176.76C209.911,179.409 208.681,181.92 206.57,183.52C204.31,185.344 201.473,186.305 198.57,186.23C196.187,186.281 193.823,185.8 191.65,184.82L191.54,184.57C191.7,183.74 191.79,181.87 191.86,178.94Z" style="fill:rgb(35,31,32);fill-rule:nonzero;"/>
    </g>
</svg>
