<svg id="Layer_1" data-name="Layer 1" xmlns="http://www.w3.org/2000/svg" viewBox="0 0 18.34 28.18">
  <defs>
    <style>
      .cls-1 {
        fill: #231f20;
      }
    </style>
  </defs>
  <path class="cls-1" d="M191.86,178.94l.15-.15h.93l.15.15a17.9,17.9,0,0,0,.26,3,2.44,2.44,0,0,0,1,1.14,7.26,7.26,0,0,0,2.3,1,11.07,11.07,0,0,0,2.91.38,8.46,8.46,0,0,0,3.62-.74,5.63,5.63,0,0,0,2.51-2.18,6,6,0,0,0,.89-3.23,5.19,5.19,0,0,0-.43-2.19,3.67,3.67,0,0,0-1.19-1.49,5.56,5.56,0,0,0-1.77-.84c-.66-.18-1.64-.38-2.95-.6s-2.26-.39-3-.55a10.54,10.54,0,0,1-2.14-.76,5.84,5.84,0,0,1-1.78-1.31,5.69,5.69,0,0,1-1.14-1.94,6.93,6.93,0,0,1-.43-2.47,7.57,7.57,0,0,1,2.47-5.83,9.44,9.44,0,0,1,6.65-2.28,17.91,17.91,0,0,1,3.61.41,14.69,14.69,0,0,1,3.55,1.21l.13.23a25.77,25.77,0,0,0-.51,5l-.17.15h-1l-.16-.13c0-1.53-.06-2.48-.11-2.88s-.63-.88-1.73-1.46a7.55,7.55,0,0,0-3.6-.88,7.2,7.2,0,0,0-3,.65,4.42,4.42,0,0,0-2.13,2,6.15,6.15,0,0,0-.73,2.84,4.38,4.38,0,0,0,.44,2,3.6,3.6,0,0,0,1.14,1.37,4.89,4.89,0,0,0,1.61.76c.62.16,1.75.36,3.38.61a19.81,19.81,0,0,1,4.91,1.15,5.4,5.4,0,0,1,2.45,2.14,6.49,6.49,0,0,1,.93,3.54,8.36,8.36,0,0,1-3.31,6.76,12.24,12.24,0,0,1-8,2.71,16,16,0,0,1-6.92-1.41l-.11-.25C191.7,183.74,191.79,181.87,191.86,178.94Z" transform="translate(-191.57 -158.01)"/>
</svg>
