<svg id="Layer_1" data-name="Layer 1" xmlns="http://www.w3.org/2000/svg" viewBox="0 0 51.24 51.89"><defs><style>.cls-1{fill:#a90533;}.cls-2{fill:#4683ba;}</style></defs><path class="cls-1" d="M365.22,240.73a21.66,21.66,0,0,0,6.48,4.7,25.28,25.28,0,0,0,34.84-15.83,22.82,22.82,0,0,0-1-16.21c-.11,1.7-1.35,4.75-4.16,8.31a57.77,57.77,0,0,1-6.46,6.54,70,70,0,0,1-8.27,6.19,60.77,60.77,0,0,1-5.56,3.08,45.63,45.63,0,0,1-4.78,2,33.33,33.33,0,0,1-5,1.31A14.26,14.26,0,0,1,365.22,240.73Z" transform="translate(-356.3 -195.91)"/><path class="cls-1" d="M381,215.6a70.67,70.67,0,0,1,9.69-4.92,30.1,30.1,0,0,1,8.17-2c3.26-.09,4.5,1.08,4.79,1.5a5.31,5.31,0,0,1,.31,4.64c-.78,2.34-2,4.07-4.53,7.19-2.86,3.5-10.14,9.33-14.73,12a44.33,44.33,0,0,1-13.15,5.36c-3,.58-6.69.74-8.54-1.34,1.68,1.46,5.25.7,8.11-.1a37.6,37.6,0,0,0,8.61-3.82,58.06,58.06,0,0,0,9.07-6.52c3.66-3.12,6.63-7,7.72-9.83.52-1.36,1.38-4.42-1.76-5.45S385.92,213.14,381,215.6Z" transform="translate(-356.3 -195.91)"/><path class="cls-2" d="M398.61,203a21.16,21.16,0,0,0-6.48-4.71A24.8,24.8,0,0,0,380,196a25.08,25.08,0,0,0-15,6.18,24.65,24.65,0,0,0-7.7,12,22.76,22.76,0,0,0,1,16.21c.1-1.7,1.34-4.75,4.16-8.31a58.44,58.44,0,0,1,6.45-6.54,72.26,72.26,0,0,1,8.28-6.19,61.89,61.89,0,0,1,5.56-3.08,43.25,43.25,0,0,1,4.78-2,33.92,33.92,0,0,1,5-1.32A14.21,14.21,0,0,1,398.61,203Z" transform="translate(-356.3 -195.91)"/><path class="cls-2" d="M382.81,228.1a68.27,68.27,0,0,1-9.69,4.92,30.58,30.58,0,0,1-8.16,2c-3.26.09-4.5-1.09-4.79-1.5a5.29,5.29,0,0,1-.31-4.65c.78-2.34,2-4.07,4.52-7.18,2.87-3.51,10.15-9.33,14.74-12a44.19,44.19,0,0,1,13.14-5.37c3-.58,6.7-.73,8.54,1.34-1.67-1.46-5.24-.7-8.1.1a37.41,37.41,0,0,0-8.61,3.82A57.49,57.49,0,0,0,375,216c-3.66,3.11-6.64,7-7.72,9.83-.52,1.35-1.38,4.41,1.76,5.45S377.92,230.56,382.81,228.1Z" transform="translate(-356.3 -195.91)"/></svg>