<?xml version="1.0" encoding="UTF-8" standalone="no"?>
<!DOCTYPE svg PUBLIC "-//W3C//DTD SVG 1.1//EN" "http://www.w3.org/Graphics/SVG/1.1/DTD/svg11.dtd">
<svg width="100%" height="100%" viewBox="0 0 52 52" version="1.1" xmlns="http://www.w3.org/2000/svg" xmlns:xlink="http://www.w3.org/1999/xlink" xml:space="preserve" xmlns:serif="http://www.serif.com/" style="fill-rule:evenodd;clip-rule:evenodd;stroke-linejoin:round;stroke-miterlimit:1.41421;">
    <g transform="matrix(1,0,0,1,-356.3,-195.91)">
        <path d="M365.22,240.73C367.069,242.686 369.267,244.28 371.7,245.43C375.019,246.96 378.631,247.753 382.285,247.753C393.47,247.753 403.387,240.331 406.54,229.6C408.205,224.258 407.849,218.486 405.54,213.39C405.43,215.09 404.19,218.14 401.38,221.7C399.404,224.048 397.244,226.235 394.92,228.24C392.32,230.504 389.555,232.573 386.65,234.43C384.852,235.553 382.996,236.581 381.09,237.51C379.536,238.267 377.94,238.934 376.31,239.51C374.68,240.075 373.008,240.513 371.31,240.82C369.297,241.229 367.22,241.198 365.22,240.73Z" style="fill:rgb(169,5,51);fill-rule:nonzero;"/>
    </g>
    <g transform="matrix(1,0,0,1,-356.3,-195.91)">
        <path d="M381,215.6C384.099,213.714 387.339,212.069 390.69,210.68C393.306,209.634 396.056,208.961 398.86,208.68C402.12,208.59 403.36,209.76 403.65,210.18C404.461,211.596 404.575,213.309 403.96,214.82C403.18,217.16 401.96,218.89 399.43,222.01C396.57,225.51 389.29,231.34 384.7,234.01C380.633,236.492 376.193,238.302 371.55,239.37C368.55,239.95 364.86,240.11 363.01,238.03C364.69,239.49 368.26,238.73 371.12,237.93C374.139,237.023 377.031,235.739 379.73,234.11C382.956,232.233 385.993,230.05 388.8,227.59C392.46,224.47 395.43,220.59 396.52,217.76C397.04,216.4 397.9,213.34 394.76,212.31C391.62,211.28 385.92,213.14 381,215.6Z" style="fill:rgb(169,5,51);fill-rule:nonzero;"/>
    </g>
    <g transform="matrix(1,0,0,1,-356.3,-195.91)">
        <path d="M398.61,203C396.77,201.032 394.57,199.433 392.13,198.29C388.345,196.517 384.171,195.729 380,196C374.454,196.341 369.176,198.516 365,202.18C361.308,205.334 358.628,209.509 357.3,214.18C355.629,219.521 355.985,225.295 358.3,230.39C358.4,228.69 359.64,225.64 362.46,222.08C364.435,219.734 366.592,217.547 368.91,215.54C371.519,213.282 374.286,211.213 377.19,209.35C378.989,208.229 380.845,207.201 382.75,206.27C384.302,205.508 385.898,204.841 387.53,204.27C389.161,203.703 390.832,203.262 392.53,202.95C394.536,202.528 396.611,202.545 398.61,203Z" style="fill:rgb(70,131,186);fill-rule:nonzero;"/>
    </g>
    <g transform="matrix(1,0,0,1,-356.3,-195.91)">
        <path d="M382.81,228.1C379.716,229.995 376.476,231.64 373.12,233.02C370.505,234.059 367.759,234.732 364.96,235.02C361.7,235.11 360.46,233.93 360.17,233.52C359.353,232.102 359.239,230.383 359.86,228.87C360.64,226.53 361.86,224.8 364.38,221.69C367.25,218.18 374.53,212.36 379.12,209.69C383.182,207.204 387.619,205.39 392.26,204.32C395.26,203.74 398.96,203.59 400.8,205.66C399.13,204.2 395.56,204.96 392.7,205.76C389.681,206.665 386.788,207.949 384.09,209.58C380.86,211.421 377.815,213.571 375,216C371.34,219.11 368.36,223 367.28,225.83C366.76,227.18 365.9,230.24 369.04,231.28C372.18,232.32 377.92,230.56 382.81,228.1Z" style="fill:rgb(70,131,186);fill-rule:nonzero;"/>
    </g>
</svg>
