<svg id="Layer_1" data-name="Layer 1" xmlns="http://www.w3.org/2000/svg" viewBox="0 0 131.88 72.19"><defs><style>.cls-1{fill:#231f20;}</style></defs><text x="-165" y="-140.66"/><path class="cls-1" d="M166.71,175l.09-.09h.6l.1.09a11.34,11.34,0,0,0,.16,1.91,1.56,1.56,0,0,0,.66.74,4.88,4.88,0,0,0,1.48.62,6.89,6.89,0,0,0,1.86.25,5.48,5.48,0,0,0,2.33-.48,3.58,3.58,0,0,0,1.6-1.4,3.83,3.83,0,0,0,.58-2.06,3.41,3.41,0,0,0-.28-1.41,2.37,2.37,0,0,0-.77-1,3.27,3.27,0,0,0-1.13-.53,18.53,18.53,0,0,0-1.89-.39c-.81-.13-1.45-.25-1.91-.35a6.62,6.62,0,0,1-1.37-.49,3.52,3.52,0,0,1-1.14-.84,3.79,3.79,0,0,1-.74-1.24,4.56,4.56,0,0,1-.27-1.58,4.85,4.85,0,0,1,1.59-3.74,6,6,0,0,1,4.26-1.46,11,11,0,0,1,2.31.26,9,9,0,0,1,2.28.78l.08.14a16.61,16.61,0,0,0-.33,3.2l-.11.1h-.63L176,166c0-1,0-1.59-.07-1.84s-.41-.57-1.12-.94a4.74,4.74,0,0,0-2.3-.56,4.69,4.69,0,0,0-1.94.41,2.81,2.81,0,0,0-1.37,1.31,3.87,3.87,0,0,0-.46,1.82,2.73,2.73,0,0,0,.28,1.27,2.34,2.34,0,0,0,.72.88,3,3,0,0,0,1,.48,20.41,20.41,0,0,0,2.17.39,13,13,0,0,1,3.14.74,3.51,3.51,0,0,1,1.58,1.38,4.19,4.19,0,0,1,.59,2.27,5.38,5.38,0,0,1-2.12,4.33,7.8,7.8,0,0,1-5.13,1.73,10.21,10.21,0,0,1-4.43-.9l-.08-.16C166.6,178.1,166.66,176.9,166.71,175Z" transform="translate(-165 -140.66)"/><path class="cls-1" d="M179.58,162l1.53.05c1,0,1.66,0,2,0s1.45,0,3.51-.1l.1.09v.61l-.1.08c-.56,0-1,.05-1.3.08a1.55,1.55,0,0,0-.67.18.84.84,0,0,0-.27.63,9.84,9.84,0,0,0-.07,1.37l0,2.81v8a17.91,17.91,0,0,0,.07,1.79,1.1,1.1,0,0,0,.18.53.89.89,0,0,0,.44.23,9.66,9.66,0,0,0,1.63.14l.1.07v.61l-.1.1-2.15-.07-1.36,0c-.25,0-1.41,0-3.49.1l-.09-.1v-.61l.09-.07a12.3,12.3,0,0,0,1.52-.12,1.17,1.17,0,0,0,.5-.19.9.9,0,0,0,.21-.5,12,12,0,0,0,.09-1.68l0-2.58v-5.65l0-2.38a17.57,17.57,0,0,0-.07-1.79,1,1,0,0,0-.17-.54.85.85,0,0,0-.44-.22,10.79,10.79,0,0,0-1.63-.14l-.09-.08v-.61Z" transform="translate(-165 -140.66)"/><path class="cls-1" d="M205.57,172.57v.37l0,.14-.6.36c-.14.09-.23.15-.25.2a3.2,3.2,0,0,0-.09.73q-.06.66-.06,1.59a21.6,21.6,0,0,0,.14,2.31l-.08.12a18.93,18.93,0,0,1-6.87,1.28,11.38,11.38,0,0,1-4.89-1,8.13,8.13,0,0,1-3.47-3,8.68,8.68,0,0,1-1.28-4.79,8.42,8.42,0,0,1,2.88-6.71,11.15,11.15,0,0,1,7.54-2.49,15.56,15.56,0,0,1,6.14,1.16l.09.13a27.68,27.68,0,0,0-.51,3.43l-.1.09h-.56l-.1-.1-.06-1.29a4.51,4.51,0,0,0-.08-.75.88.88,0,0,0-.26-.28,6.37,6.37,0,0,0-1.13-.57,9.84,9.84,0,0,0-1.83-.56,11,11,0,0,0-2-.17,8.32,8.32,0,0,0-4,.92,6,6,0,0,0-2.59,2.71,8.85,8.85,0,0,0-.88,3.95,9.55,9.55,0,0,0,.94,4.18,7.2,7.2,0,0,0,2.7,3,7.67,7.67,0,0,0,4.09,1.09,10.54,10.54,0,0,0,2.07-.21,6.24,6.24,0,0,0,1.74-.56,7.38,7.38,0,0,0,.11-1.58v-1.35a3.54,3.54,0,0,0-.12-1.21.84.84,0,0,0-.61-.33,13,13,0,0,0-2.08-.12l-.11-.11v-.54l.11-.11.75,0c1.27,0,2.32.06,3.12.06.47,0,1.14,0,2-.07Z" transform="translate(-165 -140.66)"/><path class="cls-1" d="M224.65,172.57v.37l-.05.14-.6.36c-.14.09-.23.15-.25.2a3.2,3.2,0,0,0-.09.73q-.06.66-.06,1.59a21.6,21.6,0,0,0,.14,2.31l-.08.12a18.93,18.93,0,0,1-6.87,1.28,11.46,11.46,0,0,1-4.9-1,8.16,8.16,0,0,1-3.46-3,8.68,8.68,0,0,1-1.28-4.79,8.42,8.42,0,0,1,2.88-6.71,11.15,11.15,0,0,1,7.54-2.49,15.56,15.56,0,0,1,6.14,1.16l.09.13a29.1,29.1,0,0,0-.52,3.43l-.09.09h-.56l-.1-.1-.06-1.29a4.51,4.51,0,0,0-.08-.75.88.88,0,0,0-.26-.28,6.37,6.37,0,0,0-1.13-.57,9.84,9.84,0,0,0-1.83-.56,11,11,0,0,0-2-.17,8.32,8.32,0,0,0-4,.92,6,6,0,0,0-2.59,2.71,8.72,8.72,0,0,0-.88,3.95,9.55,9.55,0,0,0,.94,4.18,7.2,7.2,0,0,0,2.7,3,7.67,7.67,0,0,0,4.09,1.09,10.54,10.54,0,0,0,2.07-.21,6.24,6.24,0,0,0,1.74-.56,7.38,7.38,0,0,0,.11-1.58v-1.35a3.54,3.54,0,0,0-.12-1.21.84.84,0,0,0-.61-.33,13,13,0,0,0-2.08-.12l-.11-.11v-.54l.11-.11.75,0c1.27,0,2.32.06,3.12.06.47,0,1.14,0,2-.07Z" transform="translate(-165 -140.66)"/><path class="cls-1" d="M226,162.06l.1-.09c1.48.07,2.65.1,3.48.1s2.16,0,3.72-.08l1.26,0c2,0,3.45.38,4.18,1.12a3.7,3.7,0,0,1,1.1,2.67,4.16,4.16,0,0,1-.54,2,4.7,4.7,0,0,1-1.58,1.69,8,8,0,0,1-2.9,1.06c.23.31.64.86,1.24,1.64l1.73,2.3c.56.76,1.16,1.56,1.81,2.4a7.7,7.7,0,0,0,1.24,1.43,1.76,1.76,0,0,0,.48.2,4.92,4.92,0,0,0,.64,0l.1.1v.58l-.11.11a11,11,0,0,0-1.39-.08c-.58,0-1.21,0-1.89.08-.56-.69-1.45-1.87-2.65-3.56q-2.1-2.93-4.3-5.43l.12-.38c.43,0,.76,0,1,0a5,5,0,0,0,3.31-1,3.5,3.5,0,0,0,1.2-2.81,2.88,2.88,0,0,0-1.08-2.44,4.63,4.63,0,0,0-2.9-.82,8.28,8.28,0,0,0-2.42.35,25.13,25.13,0,0,0-.18,4.58v8a17.91,17.91,0,0,0,.07,1.79,1.1,1.1,0,0,0,.18.53.93.93,0,0,0,.45.23,9.5,9.5,0,0,0,1.62.14l.1.07v.61l-.1.1-2.15-.07-1.35,0c-.26,0-1.42,0-3.49.1l-.1-.1v-.61l.1-.07a12.08,12.08,0,0,0,1.51-.12,1.29,1.29,0,0,0,.51-.19,1,1,0,0,0,.2-.5,10.08,10.08,0,0,0,.1-1.68v-8.23l0-2.38c0-.93,0-1.53-.06-1.79a1.25,1.25,0,0,0-.17-.54.94.94,0,0,0-.45-.22,10.75,10.75,0,0,0-1.62-.14l-.1-.08Z" transform="translate(-165 -140.66)"/><path class="cls-1" d="M242.68,179.32l-.11-.1v-.63l.11-.1a5.59,5.59,0,0,0,1.15-.09,1,1,0,0,0,.46-.32,11.06,11.06,0,0,0,.81-1.56l1.28-2.78,3.32-7.52q.95-2.21,1.87-4.42h.79l5.21,12.26.7,1.63c.2.47.44,1,.7,1.52a5.17,5.17,0,0,0,.55,1,1,1,0,0,0,.38.23,4.39,4.39,0,0,0,1,.09l.09.1v.63l-.09.1c-.87-.07-1.64-.11-2.33-.11l-4.06.11-.1-.1v-.63l.1-.1a9.19,9.19,0,0,0,1.71-.12.4.4,0,0,0,.34-.42,2,2,0,0,0-.17-.71l-1.5-3.72h-7.07l-1.33,3.13a3.78,3.78,0,0,0-.35,1.23.48.48,0,0,0,.33.45,5.53,5.53,0,0,0,1.66.16l.11.1v.63l-.1.1c-1.05-.07-2-.1-2.76-.1S243.59,179.25,242.68,179.32Zm5.57-6.85h6.17l-3.06-7.36Z" transform="translate(-165 -140.66)"/><path class="cls-1" d="M262.31,162c2.05.07,3.36.1,3.92.1.76,0,1.62,0,2.57-.06l1.87,0a9.41,9.41,0,0,1,2.83.36,3.69,3.69,0,0,1,1.85,1.29,3.57,3.57,0,0,1,.73,2.27,4.69,4.69,0,0,1-.51,2.12,5.16,5.16,0,0,1-1.43,1.75,6.16,6.16,0,0,1-1.86,1,6,6,0,0,1-1.95.31,8.77,8.77,0,0,1-1.68-.17l-.21-.74.11-.13a6.92,6.92,0,0,0,1.49.21,3.35,3.35,0,0,0,2.57-1,3.89,3.89,0,0,0,1-2.71,3.57,3.57,0,0,0-1-2.65,4.19,4.19,0,0,0-3.05-1,8.18,8.18,0,0,0-2.44.42c-.07.63-.11,2.14-.11,4.54v5.65l0,2.38a15.17,15.17,0,0,0,.07,1.79,1.1,1.1,0,0,0,.18.53.85.85,0,0,0,.44.23,9.5,9.5,0,0,0,1.62.14l.1.07v.61l-.1.1c-2.07-.07-3.24-.1-3.5-.1s-1.44,0-3.49.1l-.1-.1v-.61l.1-.07a11.89,11.89,0,0,0,1.51-.12,1.17,1.17,0,0,0,.51-.19,1,1,0,0,0,.21-.5,12,12,0,0,0,.09-1.68v-8.23l0-2.38a17.57,17.57,0,0,0-.07-1.79,1.13,1.13,0,0,0-.17-.54.94.94,0,0,0-.45-.22,10.75,10.75,0,0,0-1.62-.14l-.1-.08v-.61Z" transform="translate(-165 -140.66)"/><path class="cls-1" d="M277.41,162c2.08.07,3.24.1,3.49.1s1.44,0,3.51-.1l.09.09v.61l-.09.08c-.57,0-1,.05-1.3.08a1.55,1.55,0,0,0-.67.18.84.84,0,0,0-.27.63,9.84,9.84,0,0,0-.07,1.37l0,2.81v1.71c1.79.05,3.47.07,5.07.07,2.18,0,3.84,0,5-.07v-1.71l0-2.38a16.49,16.49,0,0,0-.08-1.79,1.25,1.25,0,0,0-.17-.54.85.85,0,0,0-.44-.22,10.79,10.79,0,0,0-1.63-.14l-.09-.08v-.61l.09-.09c2.08.07,3.25.1,3.5.1s1.44,0,3.5-.1l.1.09v.61l-.1.08c-.57,0-1,.05-1.31.08a1.5,1.5,0,0,0-.66.18.84.84,0,0,0-.27.63c0,.33-.07.79-.08,1.37l0,2.81v5.65l0,2.38a16.82,16.82,0,0,0,.08,1.79,1.25,1.25,0,0,0,.17.53.94.94,0,0,0,.44.23,9.54,9.54,0,0,0,1.63.14l.1.07v.61l-.1.1c-2.08-.07-3.25-.1-3.5-.1s-1.43,0-3.5.1l-.09-.1v-.61l.09-.07a12.11,12.11,0,0,0,1.52-.12,1.17,1.17,0,0,0,.5-.19,1.08,1.08,0,0,0,.21-.5,9.39,9.39,0,0,0,.09-1.68l0-2.58v-2.78c-2.41-.05-4.1-.07-5.07-.07s-2.65,0-5,.07v2.78l0,2.38a15.17,15.17,0,0,0,.07,1.79,1.1,1.1,0,0,0,.18.53.85.85,0,0,0,.44.23,9.54,9.54,0,0,0,1.63.14l.09.07v.61l-.09.1c-2.08-.07-3.25-.1-3.51-.1s-1.41,0-3.49.1l-.1-.1v-.61l.1-.07a11.89,11.89,0,0,0,1.51-.12,1.17,1.17,0,0,0,.51-.19,1,1,0,0,0,.21-.5,12,12,0,0,0,.09-1.68v-8.23l0-2.38a17.57,17.57,0,0,0-.07-1.79,1.13,1.13,0,0,0-.17-.54.94.94,0,0,0-.45-.22,10.75,10.75,0,0,0-1.62-.14l-.1-.08v-.61Z" transform="translate(-165 -140.66)"/></svg>