<?xml version="1.0" encoding="UTF-8" standalone="no"?>
<!DOCTYPE svg PUBLIC "-//W3C//DTD SVG 1.1//EN" "http://www.w3.org/Graphics/SVG/1.1/DTD/svg11.dtd">
<svg width="100%" height="100%" viewBox="0 0 2500 749" version="1.1" xmlns="http://www.w3.org/2000/svg" xmlns:xlink="http://www.w3.org/1999/xlink" xml:space="preserve" xmlns:serif="http://www.serif.com/" style="fill-rule:evenodd;clip-rule:evenodd;stroke-linejoin:round;stroke-miterlimit:1.41421;">
    <path d="M888.278,293.842C888.278,219.477 942.498,167.55 1041.03,167.55C1101.15,167.55 1150.35,186.746 1177.01,205.551C1180.82,208.235 1187.62,214.75 1183.54,226.864C1178.32,239.913 1168.73,259.535 1161.84,272.282C1157.84,279.71 1147.61,278.731 1142.37,276.076C1123.39,266.456 1092.25,250.181 1063.64,247.179C1056.4,246.391 1049.11,246.076 1041.83,246.236C1016.63,246.798 995.585,255.545 988.172,274.766C986.72,278.403 985.91,282.265 985.778,286.179C985.086,311.507 1020.34,320.666 1063.04,328.003C1142.43,341.603 1202.49,364.879 1202.49,446.591C1202.49,515.983 1147.34,578.695 1039.29,576.773C968.053,575.332 917.516,551.263 890.436,527.907C889.513,527.114 879.205,516.615 884.73,503.989C891.053,487.734 901.728,469.105 910.104,459.213C914.761,452.86 927.051,451.851 933.44,455.811C955.762,469.682 992.498,491.924 1034.85,493.399C1038.19,493.515 1041.5,493.535 1044.75,493.45C1082.84,492.526 1105.89,478.083 1105.41,453.753C1104.99,432.319 1074.79,419.797 1026.7,410.734C949.996,396.286 888.288,371.002 888.288,293.842L888.278,293.842Z" style="fill:rgb(68,54,66);"/>
    <path d="M1585.12,399.728C1531.03,400.436 1481.43,415.221 1480.01,457.492C1479.99,491.036 1507.2,507.512 1545.39,505.354C1582.03,501.826 1609.97,485.937 1622.28,464.854C1626.83,457.04 1627.52,427.802 1627.24,415.306C1627.17,412.646 1621.91,407.612 1619.61,406.644C1608.12,401.801 1599.61,400.305 1585.11,399.718L1585.12,399.728Z" style="fill:rgb(68,54,66);"/>
    <path d="M1405.14,229.399C1430.43,206.765 1480.58,171.535 1560.51,173.392C1665.98,175.585 1721.7,225.033 1726.89,343.32C1729.03,392.1 1725.49,528.163 1724.64,562.063C1724.52,566.926 1722.87,570.289 1716.32,570.414C1698.95,571.112 1658.82,570.836 1640.38,570.595C1631.08,570.143 1630,565.526 1629.88,560.693C1629.8,557.531 1629.53,548.157 1629.33,540.514C1629.23,536.459 1625.42,536.574 1624.44,537.613C1599.7,564.031 1559.18,576.788 1516.09,576.788C1450.6,576.788 1385.31,538.26 1385.51,461.963C1385.71,383.824 1441.12,345.282 1501.98,336.193C1540.95,330.392 1584.89,335.551 1618.16,348.77C1620.28,349.623 1624.63,348.388 1624.66,345.372C1624.8,335.416 1624.32,316.44 1622.41,307.447C1617.52,284.532 1598.41,266.094 1558.25,261.126C1549.98,260.107 1541.65,259.771 1533.32,260.433C1501.39,262.943 1462.98,287.835 1447.07,297.154C1443.33,299.342 1437.46,297.741 1435.57,295.297C1426.28,283.303 1402.94,248.223 1401.11,242.618C1399.27,237.027 1401.86,232.32 1405.13,229.379L1405.14,229.399Z" style="fill:rgb(68,54,66);"/>
    <path d="M1761.67,374.856C1761.04,265.879 1836.97,173.944 1960.27,173.136C2037.21,172.634 2093.1,207.513 2102.95,223.964C2104.95,227.828 2103.93,231.055 2102.54,234.944C2096.03,248.695 2079.58,275.263 2067.85,290.319C2062.86,296.733 2057.44,291.237 2051.14,287.047C2033.66,275.404 2000.45,261.166 1967.76,261.166C1908.46,261.176 1864.31,301.836 1864.8,376.643C1865.26,448.428 1907.56,487.879 1967.97,489.309C1999.55,490.102 2030.15,471.95 2046.61,457.08C2051.78,452.569 2057.13,454.827 2063.03,459.444C2074.63,471.293 2091.25,489.585 2100.47,502.177C2106.51,509.173 2101.99,516.018 2099.82,518.768C2074.81,550.42 2026.5,577.059 1962.57,577.42C1828.7,578.358 1762.3,484.236 1761.68,374.871L1761.67,374.856Z" style="fill:rgb(68,54,66);"/>
    <path d="M2400.67,572.507C2406.95,572.035 2474,562.781 2494.59,558.068C2499.69,556.904 2501.51,552.608 2498.66,548.353C2487.16,531.119 2456.95,482.178 2425.3,438.366C2396.19,398.082 2365.51,362.651 2355.59,349.021C2353.17,345.709 2353.3,342.447 2355.94,339.877C2374.81,321.409 2453.76,243.998 2483.45,212.03C2494.94,199.594 2488.04,194.244 2478.28,191.338C2459.43,185.717 2428.93,178.711 2411.58,175.053C2404.27,173.507 2395.46,174.049 2389.07,180.623C2359.39,208.301 2268.81,299.212 2241.77,326.387C2236.9,331.29 2234.07,330.201 2234.04,323.195C2233.82,270.802 2232.79,46.483 2230.91,9.586C2230.78,4.708 2224.92,1.005 2221.61,0.829C2204.61,-0.059 2161.65,-0.315 2144.73,0.678C2139.98,1.215 2135.45,6.048 2135.04,10.133C2131.14,69.131 2136.7,502.222 2139.02,562.806C2139.18,567.187 2142.44,570.585 2146.6,570.831C2163.49,571.809 2205.26,571.744 2224.76,571.378C2234.36,571.378 2235.53,564.633 2235.53,564.633L2236.98,448.418C2236.98,448.418 2237.97,443.249 2239.57,441.543C2246.44,434.14 2265.46,413.755 2273.57,405.876C2275.52,403.984 2278.59,404.119 2280.58,406.794C2290.22,419.792 2317.69,462.049 2343.16,499.788C2366.56,534.456 2388.41,565.225 2389.93,567.398C2393.46,572.416 2397.57,572.617 2400.67,572.522L2400.67,572.507L2400.67,572.507Z" style="fill:rgb(68,54,66);"/>
    <path d="M1260.29,572.105C1266.18,572.301 1310.92,572.251 1330.75,572.226C1337.42,572.356 1340.89,567.303 1341.11,562.841C1345.32,477.897 1343.52,73.472 1340.86,9.611C1340.64,4.091 1338.28,2.018 1334.51,1.516C1317.49,-0.762 1269.15,-0.23 1253.65,3.825C1250.62,4.613 1248.83,6.916 1248.74,9.877C1244.94,174.486 1247.5,553.988 1248.3,561.175C1249.1,568.372 1252.87,571.854 1260.3,572.105L1260.29,572.105Z" style="fill:rgb(68,54,66);"/>
    <path d="M62.897,403.211C35.326,403.422 11.969,386.991 3.357,361.346C3.038,360.378 2.74,359.402 2.464,358.421C-6.921,325.579 11.277,291.222 43.892,280.222L567.026,104.959C573.237,103.162 579.665,102.223 586.131,102.168C614.436,101.948 638.435,118.74 647.257,144.926L648.04,147.456C657.826,181.662 633.511,212.195 604.379,221.981C604.359,221.996 599.059,223.788 84.146,399.593C77.302,401.926 70.128,403.147 62.897,403.211Z" style="fill:rgb(112,202,219);fill-rule:nonzero;"/>
    <path d="M150.095,660.487C122.307,660.688 98.87,644.488 90.359,619.209C90.036,618.248 89.735,617.279 89.456,616.304C79.94,583.071 98.118,548.353 130.844,537.337L653.997,360.468C660.757,358.21 667.738,357.056 674.759,356.99C702.622,356.78 727.102,373.802 735.739,399.367L736.542,402.027C741.596,419.697 738.61,439.555 728.563,455.228C721.075,466.881 697.458,477.139 697.458,477.139L172.317,656.698C165.155,659.123 157.656,660.405 150.095,660.497L150.095,660.487Z" style="fill:rgb(224,23,101);fill-rule:nonzero;"/>
    <path d="M585.584,661.606C557.84,661.873 532.915,644.132 524.082,617.829L349.487,99.213L348.613,96.302C339.154,63.23 357.346,28.732 389.951,17.741C396.475,15.548 403.22,14.404 410.01,14.344C420.098,14.269 429.859,16.542 439.053,21.084C454.343,28.645 466,42.006 471.417,58.181L645.998,576.753L646.504,578.419C656.311,612.756 638.159,647.273 605.553,658.264C599.113,660.415 592.374,661.543 585.584,661.606Z" style="fill:rgb(232,167,35);fill-rule:nonzero;"/>
    <path d="M326.06,748.959C298.299,749.223 273.363,731.467 264.533,705.147L89.983,186.55C87.743,179.925 86.6,172.977 86.6,165.984C86.6,138.46 104.294,113.857 130.387,105.099C136.837,102.943 143.585,101.812 150.386,101.747C178.135,101.473 203.066,119.216 211.898,145.524L386.453,664.141C388.693,670.766 389.836,677.713 389.836,684.707C389.836,712.248 372.12,736.862 346.004,745.607C339.566,747.764 332.829,748.894 326.04,748.954L326.06,748.954L326.06,748.959Z" style="fill:rgb(62,184,144);fill-rule:nonzero;"/>
</svg>
